<svg xmlns="http://www.w3.org/2000/svg" xmlns:xlink="http://www.w3.org/1999/xlink" viewBox="0 0 360 360"><defs><style>.cls-1{fill:none;}.cls-2{fill:#e8a48d;}.cls-3{fill:#182149;}.cls-4{fill:#eaaa65;}.cls-5{fill:#d47655;}.cls-6{fill:#2f365f;}.cls-7{fill:#f0ecea;}.cls-8{clip-path:url(#clip-path);}.cls-9{fill:#e6dbd1;}.cls-10{fill:#f5f5f5;}.cls-11{fill:#e08f72;}.cls-12{fill:#ad9984;}.cls-13{fill:#b8a490;}.cls-14{fill:#d67e5e;}.cls-15{fill:#d6c7bf;}</style><clipPath id="clip-path"><path class="cls-1" d="M253.14,80s13.57-1.75,17.71,7.22c2.74,5.92,6.12,21.85,6.82,25.23a.76.76,0,0,1-.51.87L265,117.58a.77.77,0,0,0-.52.75l1.67,51.38a.78.78,0,0,1-.72.79l-50.64,4.82a.78.78,0,0,1-.87-.85l5.63-49.15a.78.78,0,0,0-.89-.85l-11.14,1.37a.79.79,0,0,1-.9-.77c.1-5.45,1.58-34.7,22.51-40.19C247.11,80.16,253.14,80,253.14,80Z"/></clipPath></defs><g id="Layer_5" data-name="Layer 5"><path class="cls-2" d="M260.67,116.11s1.19,18.66,10.67,20.3,27.93-33.72,27.93-33.72,9-9.22,7.68-15.77-4.49-2.61-5.77.55c-1,2.41-2.18,6.64-2.18,6.64s1.62-7.53.41-6.84C294,90.38,295.88,98,295.88,98s-13.33,14.73-20.94,22.86l-1.15-9.46Z"/><path class="cls-2" d="M209.41,125.67s0,5.75-3.15,9.48c-9.11,10.69-19.92,27.09-25.43,36.24s-4.81,13.73-2.93,13.89c1.06.08,2.84-7,2.84-7s-.79,9,5.25,6.62,5.42-8.55,2.4-13.54c0,0,26-20.94,30.1-35,3.71-12.82,3.66-18.23,3.66-18.23Z"/><path class="cls-3" d="M252,45.52s11.67,26.09-5.53,40.57-39.92,57-74.13,36.65C159,114.85,160.51,88.92,199,73.49c16.95-6.8,24-19.88,25-26.32S250.71,36.61,252,45.52Z"/><path class="cls-2" d="M220.85,47.17s.7,6,1.19,10.7-3.95,7.61.79,9.81,1.82,5.38,7,7c4.05,1.23,9.05-1.68,9.87,9.62.15,2,8.1-3.27,9.92-.63C249.64,83.64,250,49.67,220.85,47.17Z"/><path class="cls-3" d="M227.67,59.83c.29,1.31,0,2.48-.66,2.62s-1.43-.82-1.72-2.13,0-2.48.66-2.62S227.38,58.52,227.67,59.83Z"/><path class="cls-3" d="M226.8,65.39a3.52,3.52,0,0,1-2.53-1.31,8.38,8.38,0,0,1-1.86-3.8,8.25,8.25,0,0,1,.09-4.21,3.14,3.14,0,0,1,2.22-2.34,3.26,3.26,0,0,1,3,1.25,8.32,8.32,0,0,1,1.86,3.81,8.15,8.15,0,0,1-.09,4.21,3.14,3.14,0,0,1-2.22,2.34A2.72,2.72,0,0,1,226.8,65.39ZM225.21,54.6a1.43,1.43,0,0,0-.29,0,2.26,2.26,0,0,0-1.51,1.71,7.33,7.33,0,0,0-.07,3.74A7.44,7.44,0,0,0,225,63.47a2.37,2.37,0,0,0,2.1,1,2.28,2.28,0,0,0,1.51-1.72,7.32,7.32,0,0,0,.07-3.74A7.44,7.44,0,0,0,227,55.59,2.6,2.6,0,0,0,225.21,54.6Z"/><path class="cls-3" d="M229.14,59.35a.48.48,0,0,1-.47-.35.47.47,0,0,1,.34-.56l12.46-3.17a.48.48,0,0,1,.59.33.47.47,0,0,1-.34.56l-12.46,3.17Z"/><path class="cls-4" d="M251.47,44.05s-2.76-12.22-10.74-13.74c-8.64-1.65-24.59,3-21.38,22.57Z"/><path class="cls-4" d="M230.29,49.88s-15,7.38-20.22,6.28c-7-1.48-6.82,1-7.91.66-3.48-.92,16.17-9.12,16.17-9.12S225,44.85,230.29,49.88Z"/><path class="cls-5" d="M226.82,70.55a.92.92,0,1,1,0-1.84,2.59,2.59,0,0,0,2.54-2,1,1,0,0,1,1.13-.72.92.92,0,0,1,.75,1.08A4.46,4.46,0,0,1,226.82,70.55Z"/><path class="cls-2" d="M264.05,169.7l-6.4,126.18h-7s-9-30.87-6.2-54.95-3.11-62.68-3.11-62.68Z"/><path class="cls-2" d="M186.79,295.88s45.3-48.84,52.35-99.57L216,200.4s.54,27.31-9.6,42.6a206.63,206.63,0,0,0-25.21,52.36Z"/><path class="cls-6" d="M216.62,174,208.3,202a1.09,1.09,0,0,0,.69,1.33c4,1.42,19.41,6.32,32.45,2.16a1.14,1.14,0,0,0,.77-.94l.67-5.66.42,4.82a1.1,1.1,0,0,0,1.15,1c3.8-.08,17-.74,25.71-5.91a1.1,1.1,0,0,0,.51-1.17l-7.12-33.26Z"/><path class="cls-7" d="M181.68,290.4A6.82,6.82,0,0,0,178.9,296c0,3.83-4.05,4.68-.6,7.58s9.45.52,13.23,4.55,17,5.91,19.85,1.94-10.57-8.31-13.29-14-1.85-6.41-5.26-6.66-5.77,4.64-7.46,3.2S184.16,289.31,181.68,290.4Z"/><path class="cls-7" d="M249,294a6.73,6.73,0,0,0-1.49,6c.81,3.75-2.92,5.4,1.1,7.53s9.35-1.46,13.93,1.7,17.92,2.25,19.81-2.21-12.16-5.93-16.09-11-3.23-5.88-6.6-5.42-4.61,5.73-6.58,4.67S250.84,292.33,249,294Z"/><g class="cls-8"><path class="cls-7" d="M253.14,80s15.18-2.19,18.51,6.45c3,7.83,8.56,25.79,8.56,25.79L264.47,122l1.72,48.41-52.36,5,5.84-51.07-13,1.6s-.59-35,22.51-41.07C247.11,80.16,253.14,80,253.14,80Z"/><path class="cls-9" d="M242.72,147.34a1.35,1.35,0,0,0-.27-.12h-.18a.55.55,0,0,0-.31,0l-.2.13-.12.14-.09.21a.57.57,0,0,0,.12.43.88.88,0,0,0,.51.31.67.67,0,0,0,.69-.3.64.64,0,0,0,0-.71Z"/><path class="cls-9" d="M248.64,141a.94.94,0,0,0,1.09-.49l.19,0,.11-.08.17-.26,0-.2-.08-.31a.8.8,0,0,0-.28-.25l-.16-.11-.4-.05a1.07,1.07,0,0,0-1.17.77,3.7,3.7,0,0,0,0,.49l.14.26Z"/><path class="cls-9" d="M241.37,145.38l.25-.13.14-.14.11-.26a.63.63,0,0,0-.12-.46.34.34,0,0,0-.16-.12l-.26-.15-.22,0-.32.08-.17.12-.11.19a.79.79,0,0,0-.08-.26l-.28-.2-.34,0-.37.09a.62.62,0,0,0-.14.9.49.49,0,0,0,.12.13l.29.1h.21l.28-.11a.78.78,0,0,0,.23-.26l.09.28A.85.85,0,0,0,241.37,145.38Z"/><path class="cls-9" d="M241.47,144.18l.12.09A.33.33,0,0,0,241.47,144.18Z"/><path class="cls-9" d="M247.64,126.77l-.21,0a.64.64,0,0,0-.46,1.07.68.68,0,0,0,.51.27.64.64,0,0,0,.5-.21l.11-.25a3.13,3.13,0,0,0-.06-.55l-.09-.1-.16-.13Z"/><path class="cls-9" d="M248.83,134.32l-.37.09a.78.78,0,0,0-.13,1.15,1.85,1.85,0,0,0,.32.21l.21,0,.29-.07a.77.77,0,0,0,.24-1.08s-.32-.27-.32-.27Z"/><path class="cls-9" d="M263,135.86l.1-.26v-.2l-.1-.26a.93.93,0,0,0-1-.23.69.69,0,0,0-.47.7l.2.32.22.13.39,0a.4.4,0,0,1-.22,0A.83.83,0,0,0,263,135.86Z"/><path class="cls-9" d="M246.29,145.83l-.33.22-.12.23,0,.4a.85.85,0,0,0,.62.42.77.77,0,0,0,.6-.2l.13-.26,0-.19-.08-.28A.86.86,0,0,0,246.29,145.83Z"/><path class="cls-9" d="M266.62,155.51l-.14-.12-.16-.08a.9.9,0,0,0-1,.18.64.64,0,0,0-.18.42,1.8,1.8,0,0,0-.05.45.86.86,0,0,0,.1.16.83.83,0,0,0,.66.32.37.37,0,0,1-.19-.08l.31.09.23,0,.29-.16S267,156,266.62,155.51Z"/><path class="cls-9" d="M256.26,162.77a.74.74,0,0,0-.44,0l-.23.24-.07.22a.64.64,0,0,0,0,.41l.25.23.22.07a.77.77,0,0,0,.43,0l.24-.25.08-.21a.79.79,0,0,0,0-.43l-.26-.23Z"/><path class="cls-9" d="M262.44,158.12l-.11.25v.2l.08.26.09.12a.67.67,0,0,0,.51.25.64.64,0,0,0,.48-.21l.06-.14a.61.61,0,0,0,.1-.72l-.24-.2-.2-.06h-.31A.65.65,0,0,0,262.44,158.12Z"/><path class="cls-9" d="M238.1,131.21a.65.65,0,0,0-.21.9l.26.19.21.07.33,0a.78.78,0,0,0,.41-.49v-.17l0-.16-.08-.16A.69.69,0,0,0,238.1,131.21Z"/><path class="cls-9" d="M262.63,168.43a.72.72,0,0,0-.75-.26l-.26.17-.12.17-.07.29a2.12,2.12,0,0,0,.13.38.93.93,0,0,0-1.21-.07l-.2.38v.29l0,.15c0,.1-.14.21-.14.21l-.1.14a.88.88,0,0,0-.14.76.75.75,0,0,0,.2.74l.31.15.24,0,.34-.07a1.52,1.52,0,0,0,.38-.39,1.13,1.13,0,0,0,.17-1,1.09,1.09,0,0,0-.08-.15,1,1,0,0,0,.33-.29,1.53,1.53,0,0,0,.07-.36c0,.06.11.4.11.4l.22.19.49.05a.82.82,0,0,0,.35-.37.53.53,0,0,1-.15.15l.18-.2.06-.16,0-.25c0,.05,0-.19,0-.19l-.05-.15-.15-.2A.93.93,0,0,0,262.63,168.43Z"/><path class="cls-9" d="M266.36,169.08a.74.74,0,0,0-.55.17l-.15.27,0,.21.08.29.17.21.28.16.23,0,.25-.07.31-.21.1-.26-.06-.41A.93.93,0,0,0,266.36,169.08Z"/><path class="cls-9" d="M247.37,153.66l-.15.12a1.35,1.35,0,0,0-.15.27.77.77,0,0,0,.16.64.89.89,0,0,0,.71.36.8.8,0,0,0,.67-.36l.08-.26,0-.19-.11-.25A1,1,0,0,0,247.37,153.66Z"/><path class="cls-9" d="M267.41,141.09a.67.67,0,0,0,.16-.68l-.35-.31-.29,0a.77.77,0,0,0-.69.07.35.35,0,0,0-.11.1A1.3,1.3,0,0,0,266,140a1,1,0,0,0-.5-.28.68.68,0,0,0-.5-.22l-.17-.07-.38-.16h-.24l-.14.06a.88.88,0,0,0-.78.25l-.11.27v.2l.08.26a.21.21,0,0,1,0-.12,1.85,1.85,0,0,0,0,.23,1,1,0,0,0-.57,1.27,2,2,0,0,0,.24.32l0,.34.14.25.33.25a22.37,22.37,0,0,0,2.17-1.06,1,1,0,0,0,.11-.2l0-.3a3,3,0,0,0,.36-.43l.09.16.24.13.35,0a.3.3,0,0,1-.14,0A.81.81,0,0,0,267.41,141.09Z"/><path class="cls-9" d="M258.4,159.25a1.17,1.17,0,0,0-.16-.15.51.51,0,0,1-.12-.2l-.14-.08-.25-.08a.62.62,0,0,0-.4.1l-.28,0a.89.89,0,0,0-.62.4,2,2,0,0,0-.11.39l0,.21.13.27a1.1,1.1,0,0,0,.56.29l.12.12.17.08a1.68,1.68,0,0,0,.31,0,1.2,1.2,0,0,0,.5-.25.41.41,0,0,1-.23,0l.4-.12.19-.19.1-.4A1.27,1.27,0,0,0,258.4,159.25Z"/><path class="cls-9" d="M267.34,160a.85.85,0,0,0-.16-.17l-.25-.09h-.19l-.26.07a.79.79,0,0,0-.3.38.76.76,0,0,0-1,.16l-.1.19,0,.16v.21a.82.82,0,0,0,.12.2.69.69,0,0,0,.39.27l.27.08.36-.06a.76.76,0,0,0,.3-.41l.14.06a.77.77,0,0,0,.75-.32A.65.65,0,0,0,267.34,160Z"/><path class="cls-9" d="M260.16,165.47l-.21,0-.31.07a.74.74,0,0,0-.31.85l.28.27.25.08.33-.06.3-.2.11-.24,0-.41-.12-.16Z"/><path class="cls-9" d="M259.62,143.43a.69.69,0,0,0,.45,0l.23-.25.07-.21a.71.71,0,0,0,0-.41l-.25-.23-.22-.08a.77.77,0,0,0-.45,0l-.23.24-.07.21a.64.64,0,0,0,0,.43l.25.22Z"/><path class="cls-9" d="M254.51,159.42a.65.65,0,0,0,.21-.95,1,1,0,0,0-.69-.32l-.31.08-.17.13-.17.27a.76.76,0,0,0,.14.53.83.83,0,0,0,.24.21c0-.05.23.1.23.1l.21,0Z"/><path class="cls-9" d="M259.45,150.46l.37-.27.09-.26-.11-.44a2.74,2.74,0,0,0-.11-.28l-.26-.19-.21-.06-.32,0a1,1,0,0,0-.51.58v.24l.05.15.13.2A1.29,1.29,0,0,0,259.45,150.46Z"/><path class="cls-9" d="M244.35,140a1.29,1.29,0,0,0-.17-.28l-.19-.32a.75.75,0,0,0-.23-.37l-.54-.13a.84.84,0,0,0-.87.35,1,1,0,0,0-.13.3.62.62,0,0,1-.23,0,.86.86,0,0,0-.84.39.77.77,0,0,0,.06,1,.78.78,0,0,0,.37.22.72.72,0,0,0-.34.28l.08.34a.55.55,0,0,0,.08.34.5.5,0,0,0,.1.14.5.5,0,0,1,.25,0l.37.1a.53.53,0,0,1-.26,0s.11.08.11.08l.33-.07.39-.08a.8.8,0,0,0,.11-.59.82.82,0,0,0-.37-.49,1,1,0,0,0-.27-.11,1,1,0,0,0,.36-.3,1.17,1.17,0,0,0,.25.11H243a.87.87,0,0,0,.57.11.9.9,0,0,0,.59-.4s-.22-.19-.22-.19.33,0,.33,0Z"/><path class="cls-9" d="M246.45,160.24l-.36-.07a.89.89,0,0,0-1-.15.71.71,0,0,0-.36.9l.24.22.2.07.16,0a.9.9,0,0,0,.27.47l.35.12h.26l.36-.16s.18-.07.31-.28a.77.77,0,0,0,.1-.18v-.34l-.08-.22-.21-.27Z"/><path class="cls-9" d="M229.19,148.13l-.25-.18-.35,0-.52.22a1.33,1.33,0,0,0-.11,1.25l.39.33.21,0a.78.78,0,0,0,.55.07l.16-.07a1.89,1.89,0,0,0,.25-.21,1.06,1.06,0,0,0,.14-1.13l-.41-.27C229.32,148.23,229.19,148.13,229.19,148.13Z"/><path class="cls-9" d="M253.86,137.83a.91.91,0,0,0-.55-.55H253l-.23.07-.28.21-.18.27-.08.33,0,.23.16.31a1,1,0,0,0,.74.25.86.86,0,0,0,.64-.39A.81.81,0,0,0,253.86,137.83Z"/><path class="cls-9" d="M236.07,126l.35.2a.9.9,0,0,0,1.11-.69,1.16,1.16,0,0,0-.34-.92l-.36-.2c-.12-.11-.17-.26-.32-.4l-.39-.15h-.28a1,1,0,0,0-.48.21l-.16.38v.28l0,.14a.88.88,0,0,0,.19.32l.35.15c0,.05,0,.09,0,.14s.11.31.11.31Z"/><path class="cls-9" d="M252.46,155.84l.36.08.25,0a1,1,0,0,0,.42-.21l.14-.52-.11-.31c-.21-.45-.48-.55-.64-.57a.77.77,0,0,0-.72.31l-.11.32v.24a2.11,2.11,0,0,0,0,.26l.24.35Z"/><path class="cls-9" d="M247.41,148.11h-.34l-.23.07-.27.21-.09.13-.07.35,0,.24a1,1,0,0,0,.16.34l-.06.27c0,.06-.13,0-.13,0s-.17,0-.17,0a1.13,1.13,0,0,0-1.36-.11l-.21.22a.33.33,0,0,1-.15.05.87.87,0,0,0-.58.4l-.09.16,0,.35.07.23.22.27.14.09c.05,0,.13.19.13.19l.14.17.27.16a1.14,1.14,0,0,0,1.32-.46l.1-.32v-.24c0-.06.06-.07.08-.11l.08-.31v-.15a.48.48,0,0,0,0-.18.19.19,0,0,0,.23-.06.72.72,0,0,0,.21.36l.49.13.32-.08.32-.23a.82.82,0,0,0,.12-.76.72.72,0,0,0-.16-.25.8.8,0,0,0,0-.6A.82.82,0,0,0,247.41,148.11Z"/><path class="cls-9" d="M257.89,156.75l.1-.14a.85.85,0,0,0,.07-.9,1.08,1.08,0,0,0-1-.44l-.2,0-.14.06-.17.12a1.89,1.89,0,0,0-.23.28,1.25,1.25,0,0,0-.23.81,1.19,1.19,0,0,0-.15.18.82.82,0,0,0-.13.62l.09.19.09.13.16.15a1,1,0,0,0,1.22,0,2.64,2.64,0,0,0,.29-.14,1,1,0,0,0,.14-.16A.81.81,0,0,0,257.89,156.75Z"/><path class="cls-9" d="M253.22,152.34l.09-.32c0,.06,0-.25,0-.25l0-.14a2,2,0,0,0,.1-.43,1,1,0,0,0-.17-.45.48.48,0,0,0-.14-.09.74.74,0,0,0,0-.14,1,1,0,0,0-.93-.51l-.37.17-.2.19-.16.37a2.69,2.69,0,0,0,.11.79,2.13,2.13,0,0,1,.07.42,4.69,4.69,0,0,1,.06.59l.24.3s-.1.21-.1.21l-.08.36.05.24.19.32a1,1,0,0,0,.75.19.9.9,0,0,0,.61-.41,2.45,2.45,0,0,0,.09-.44l-.06-.24-.23-.3-.13-.08s.14-.15.14-.15Z"/><path class="cls-9" d="M253.91,149.05l0-.22a.84.84,0,0,0-.62-.81,1.83,1.83,0,0,0-.35,0,1,1,0,0,0-.64.44,1.44,1.44,0,0,0-.18.4,2.41,2.41,0,0,0,0,.4l.07.21.2.26a.92.92,0,0,0,1.18-.11,2.19,2.19,0,0,0-.17-.38l.35.16Z"/><path class="cls-9" d="M231.11,134.92a.48.48,0,0,1-.25-.09l.32.11h.22l.3-.09c-.06,0,.21-.1.21-.1l.16-.13.18-.24s.08,0,.12,0a1.4,1.4,0,0,0,.43-.39.81.81,0,0,0,0-.94l-.31-.21-.25-.06-.37,0a2.7,2.7,0,0,0-.6.46,1.77,1.77,0,0,1-.3.25,5.13,5.13,0,0,1-.46.32l-.13.32.16.57A1,1,0,0,0,231.11,134.92Z"/><path class="cls-9" d="M267,158.73v0s0-.06,0-.1S267,158.71,267,158.73Z"/><path class="cls-9" d="M252.88,147l-.13-.43a.89.89,0,0,0-.86-.31.24.24,0,0,1,0-.19l.06-.2a.7.7,0,0,0-.17-.44.71.71,0,0,0-.79-.26.64.64,0,0,0-.44.63,1,1,0,0,1,0,.22l.21.26-.28-.24-.29-.09h-.42a1,1,0,0,0-.61,1.06l.31.4a2.2,2.2,0,0,1,.05.35,1,1,0,0,0,.23.48l.4.15.27,0,.15,0a.71.71,0,0,0,.35-.2,2.78,2.78,0,0,0,.42-.3s.19.08.19.08a.93.93,0,0,0,1.24-.52l-.33-.18.35,0Zm-1.64-.39a.58.58,0,0,0-.28-.07l-.12-.21.19.1.23,0C251.38,146.49,251.24,146.64,251.24,146.64Z"/><path class="cls-9" d="M232,138.72l.06.27.2.24.38.25H233l.46-.25a1.11,1.11,0,0,0,.19-.87,1,1,0,0,0-.44-.54l-.39-.05-.25.06-.31.22-.19.27Z"/><path class="cls-9" d="M245.66,145l.06-.41a.83.83,0,0,0-.6-.59l-.36-.07-.34.13c0-.07-.13-.1-.19-.15a1.72,1.72,0,0,1,.2-.15l.22-.35.06-.32-.26-.16s0-.09,0-.15a.62.62,0,0,1-.09-.11,3.19,3.19,0,0,0-.49-.2c0,.05-.21,0-.21,0a.67.67,0,0,0-.38.18.73.73,0,0,0-.14.18.69.69,0,0,0-.08.25,1,1,0,0,0-.65.28l-.18.35,0,.27.11.38.33.44.28.19.23.08a4,4,0,0,0,.59.21l.32-.08c.06,0,.13.13.13.13a.87.87,0,0,0,1.27,0l-.21-.27.28.18Z"/><path class="cls-9" d="M263.59,153.63l.05.36.11.22a2.75,2.75,0,0,0,.15.25l.39.24.17,0,.39-.08.22-.14a1,1,0,0,0,.32-.39l-.11-.57-.24-.25a1.14,1.14,0,0,0,0-1.14.67.67,0,0,0-.22-.19,1,1,0,0,0,0-.27l-.07-.24a.73.73,0,0,0-.55-.32.53.53,0,0,1-.29-.1l-.44,0a.75.75,0,0,0-.46.51l-.25.19-.21.35,0,.26.08.33a.92.92,0,0,0,0,.23l.06.16a1,1,0,0,0,.17.23.9.9,0,0,0-1,.38l.16.69a.71.71,0,0,0,.76.4l.19-.09.38-.08a.84.84,0,0,0,.12-.65.79.79,0,0,0-.22-.4.94.94,0,0,0,.41,0C263.64,153.56,263.61,153.57,263.59,153.63Z"/><path class="cls-9" d="M261.18,155.74l.31-.21a.94.94,0,0,0-.21-1.32,3.73,3.73,0,0,0-.48-.18l-.3,0-.38.25a.89.89,0,0,0-.13.4,1,1,0,0,0-1.09,0l-.2.33v.19a.72.72,0,0,0,.06.78.93.93,0,0,0,.14.14,1.77,1.77,0,0,0,.29.12,1.08,1.08,0,0,0,1.14-.48l.07-.17a1.41,1.41,0,0,0,.18.14l.36.05Z"/><path class="cls-9" d="M257.88,154l.45-.21.2-.31,0-.56a1.25,1.25,0,0,0-.74-.65,1.17,1.17,0,0,0-.42-.29.88.88,0,0,0-.81.23l-.17.39,0,.3,0,.15a.93.93,0,0,0,.3.37l.14.26.34.28.29.08Z"/><path class="cls-9" d="M267,159l0,.17-.08.2-.09.15-.29.2-.23.07h-.36s0,0-.06,0,0,0,0,0a.81.81,0,0,1-.39-.44l0-.17,0-.29.17-.39a.92.92,0,0,1,.21-.13s0,0,0,0a.89.89,0,0,1,.55-.07.8.8,0,0,1,.59.51s0,0,0,.06v0Z"/><path class="cls-9" d="M246.64,134.32a.91.91,0,0,0-.66.41.83.83,0,0,0-.12.68l.06.15.18.21a.94.94,0,0,0,.74.21,1,1,0,0,0,.65-.44.64.64,0,0,0,.08-.14l.05-.31,0-.21-.15-.27A1,1,0,0,0,246.64,134.32Z"/><path class="cls-9" d="M261.63,144.36l-.13.39a.82.82,0,0,0,.55,1l.24,0,.17,0,.22-.09a.76.76,0,0,0,.24-.23.86.86,0,0,0-.21-1.17A.8.8,0,0,0,261.63,144.36Z"/><path class="cls-9" d="M257.66,145.33l.13-.37,0-.26-.18-.34a1,1,0,0,0-1.37,0l-.12.36,0,.27.18.34A1,1,0,0,0,257.66,145.33Z"/><path class="cls-9" d="M240.83,125.8l.52-.07a1.24,1.24,0,0,0,.68-.85v-.29l-.06-.19-.16-.24a.64.64,0,0,0-.25-.44,1.09,1.09,0,0,1,0-.18l-.08-.36a1.06,1.06,0,0,0-1.16-.45L240,123l-.13.28,0,.16c0,.11-.24.16-.24.16l-.16.09a1,1,0,0,0-.49.71.81.81,0,0,0-.13.82l-.48,0a1,1,0,0,0-.56.67,1.1,1.1,0,0,0,.18,1,.94.94,0,0,0,.67.36,1.14,1.14,0,0,0,1.35-.43l.1-.26,0-.19,0-.27a1.38,1.38,0,0,0-.17-.29.88.88,0,0,0-.15-.12,1.84,1.84,0,0,0,.48-.21c.12-.05.17,0,.2,0s0-.08-.07-.12a3.22,3.22,0,0,1,.24.28Z"/><path class="cls-9" d="M263.42,146l-.15.06a.72.72,0,0,0-.31.86l.3.27a.75.75,0,0,0,1.05-.09l.09-.22v-.17a1.61,1.61,0,0,0,.43-.24.79.79,0,0,0,.08.45l.38.12a.63.63,0,0,0,.37.12h.19c0-.1.14-.23.14-.23l.08-.11s.23-.18.23-.18a.48.48,0,0,1-.12.26s.14,0,.14,0l.12-.34.13-.4a.84.84,0,0,0-.5-.42,1,1,0,0,0-.69,0,1.2,1.2,0,0,0-.26.18.86.86,0,0,0-.09-.49,1.11,1.11,0,0,0,.25-.17l.11-.19a1,1,0,0,0,.32-.3v.2l0,.16a.85.85,0,0,0,.49.49l.36,0,.23-.07.28-.21.09-.14.08-.21,0-.16,0-.23a1,1,0,0,0-.27-.39l.07-.14,0-.12v-.19a.68.68,0,0,0-.13-.27.79.79,0,0,0-1-.24.65.65,0,0,0-.37.64l-.19,0c-.07-.12.15-.32.15-.32l-.29-.29a2.17,2.17,0,0,0-.37,0h-.25l-.34-.1-.49.07a1,1,0,0,0-.4.48l-.12.2,0,.6a1.58,1.58,0,0,0,.32.44c0,.08-.09.13-.15.2A.83.83,0,0,0,263.42,146Z"/><path class="cls-9" d="M253.45,146.43l.33-.2A.51.51,0,0,0,254,146a.74.74,0,0,0-.12-1l-.36-.18a3.38,3.38,0,0,0-.46,0l-.23.07-.27.2-.14.21-.07.38.06.25.23.32.21.13.37.07Z"/><path class="cls-9" d="M252.59,140.66a.73.73,0,0,0,.12-.62.51.51,0,0,0,.07.17.74.74,0,0,0,.9.19.67.67,0,0,0,.37-.79l-.3-.28-.25-.07a.71.71,0,0,0-.3,0l-.21.07-.13.08-.14.17a.57.57,0,0,0,0,.46.8.8,0,0,0-.39-.46,1,1,0,0,0-.59-.43h-.34l-.19.06a.74.74,0,0,0-.32.29.83.83,0,0,0,.11,1.09,2.43,2.43,0,0,0,.29.35.41.41,0,0,1-.18-.15,1,1,0,0,0,.4.39h.45l.28-.12.22-.18A1.49,1.49,0,0,0,252.59,140.66Z"/><path class="cls-9" d="M259.78,114.05l-.39-.07-.26,0-.33.22-.09.14-.07.36.05.25a.87.87,0,0,0,.52.59l.35,0,.23-.07.29-.21.13-.2.07-.38-.06-.26-.22-.31Z"/><path class="cls-9" d="M247.46,123.89l-.49-.08-.22.07a.94.94,0,0,0-.9.4.88.88,0,0,0-.1.22,1.69,1.69,0,0,0,0,.37,1.29,1.29,0,0,0,1.07,1.06H247l.17,0,.21-.1a1.43,1.43,0,0,0,.36-.38A1.1,1.1,0,0,0,247.46,123.89Z"/><path class="cls-9" d="M241.18,120.89a1.16,1.16,0,0,0,.08-.91l-.23-.31-.23-.14-.39-.06a.89.89,0,0,0-.57.39.85.85,0,0,0-.14.34c0-.07,0,.31,0,.31l.07.25.22.3A.86.86,0,0,0,241.18,120.89Z"/><path class="cls-9" d="M248.57,145a.88.88,0,0,0-.58-.33.86.86,0,0,0-.32,0,1,1,0,0,0,.22-.45h.29l.2-.09a.93.93,0,0,0,.6-.15.83.83,0,0,0,.33-.41.73.73,0,0,0,.45-.21l.13-.47-.09-.34a.94.94,0,0,0-.65-.62h-.32a.69.69,0,0,0,0-.56c-.08-.14-.12-.23-.18-.32a.87.87,0,0,0-.31-.22l-.14,0a1.3,1.3,0,0,0-.25,0l-.3,0-.21.2a.83.83,0,0,0-.3-.58l-.35-.12h-.26l-.35.14a.71.71,0,0,0-.32.28,1.74,1.74,0,0,0-.1.19v.34l.08.22a1.3,1.3,0,0,0-.44,0l-.35.27-.15.27,0,.13a.77.77,0,0,0,0,.42l.28.36.27.15.15,0a.9.9,0,0,0,.42,0l.38-.27.16-.26.05-.14a.84.84,0,0,0,0-.44l-.1-.12.16,0,.26,0,.31-.17a1.34,1.34,0,0,0,.11-.14s0-.09,0-.13l0,.2.2.27.21.09c-.46.13-.71.37-.76.72a.84.84,0,0,0,0,.35.68.68,0,0,1-.24.08.88.88,0,0,0-.64.74.85.85,0,0,0,1,1,.76.76,0,0,0-.2.41l.23.3a.64.64,0,0,0,.23.3l.16.09c.06-.08.25-.11.25-.11l.41-.06a.57.57,0,0,1-.24.14c-.05,0,.14,0,.14,0l.29-.21.34-.25A.83.83,0,0,0,248.57,145Z"/><path class="cls-9" d="M261.21,161.79l-.33-.17-.26,0-.39.08-.22.14-.23.3a.72.72,0,0,0,0,.19.93.93,0,0,0,.68,1.09l.4,0,.24-.12.28-.3s.14-.15.18-.41a.79.79,0,0,0,0-.22l-.14-.33Z"/><path class="cls-9" d="M238.34,157.12c.11.06-.06,0-.06,0l-.32-.07-.36.09-.41.45a1.41,1.41,0,0,0,.46,1.25l.53.16.23-.05a.76.76,0,0,0,.56-.17l.13-.13.07-.12.08-.19a1.15,1.15,0,0,0-.39-1.16Z"/><path class="cls-9" d="M253.21,106.83a.95.95,0,0,0,1.75.58v-.52l-.17-.29a.92.92,0,0,0-.24-.31l-.26-.12-.21,0-.29,0A.83.83,0,0,0,253.21,106.83Z"/><path class="cls-9" d="M255.35,123.29l-.26-.32-.24-.15-.41-.06a1,1,0,0,0-.9,1.16.92.92,0,0,0,.41.6l.07.28.18.23.33.17.38.09.33-.07.39-.34a.65.65,0,0,0,.18-.41,1.34,1.34,0,0,0,0-.21l-.15-.34-.17-.19a.39.39,0,0,1-.11-.28A1.24,1.24,0,0,0,255.35,123.29Z"/><path class="cls-9" d="M234.74,131.91a.85.85,0,0,0,.26-.35l0-.44-.14-.26-.08-.11c-.07-.07.28-.23.28-.23l.13-.21.07-.37-.05-.25-.21-.31a1,1,0,0,0-1.14,0l-.2.43v.3l.22.35c.07.05-.19.17-.19.17l-.12.08a.9.9,0,0,0-.25.33v.44l.14.27.09.12a.91.91,0,0,0,.33.24h.46l.28-.13Z"/><path class="cls-9" d="M253.91,153.64l.34.18.17,0,.41-.1.24-.16.21-.36a.21.21,0,0,1,.14-.1.9.9,0,0,0,.72-.74l-.07-.34-.08-.14s-.12-.26-.12-.26l-.32-.25.13-.36a.61.61,0,0,0,0-.14.75.75,0,0,0,.13.11l.07.29.14.22a.92.92,0,0,0,.42.32l.54-.08.28-.21.21-.37a1,1,0,0,0-.23-.79,1,1,0,0,0-.28-.18.83.83,0,0,0-.24-.59.8.8,0,0,0-.3-.19l.29-.42,0-.34-.11-.39-.11-.16a1,1,0,0,0-.16-.8l-.21-.17-.17-.09-.27-.06a1.41,1.41,0,0,0-1,.41l-.16.28-.05.23,0,.32a1.26,1.26,0,0,0,.13.23.76.76,0,0,0,.21.19l.07.3.11.16a1.07,1.07,0,0,0,.56.39l-.18.17-.17.31c-.05.09-.33,0-.33,0h-.21l-.29.08a.76.76,0,0,0-.23.24.86.86,0,0,0,.2,1.17c.05,0,.11,0,.16,0a1.2,1.2,0,0,0-.4.32l-.11.31a.3.3,0,0,1-.12.11.92.92,0,0,0-.39.64.59.59,0,0,0,0,.19l.13.35Z"/><path class="cls-9" d="M261.74,146.74a2.6,2.6,0,0,0-.34.13,1,1,0,0,0-.43.71,1.43,1.43,0,0,0,0,.46,2.88,2.88,0,0,0,.14.4l.17.18.31.17a1,1,0,0,0,.53,0,2,2,0,0,0,.32-.05l.32-.22.14-.21.06-.41-.08-.26-.12-.14,0-.2A.93.93,0,0,0,261.74,146.74Z"/><path class="cls-9" d="M234.88,140.89l-.39-.07-.28.05-.34.2a3.41,3.41,0,0,0-.37.7,1.7,1.7,0,0,1-.18.38s-.3.5-.3.5l0,.37.41.49a1.08,1.08,0,0,0,.67,0,.49.49,0,0,1-.28,0l.36,0,.21-.09.26-.22c-.06,0,.16-.19.16-.19l.1-.19.06-.31s.07-.06.09-.1a1.22,1.22,0,0,0,.25-.55A.87.87,0,0,0,234.88,140.89Z"/><path class="cls-9" d="M252.11,143.86l.39-.09.22-.14.23-.3a1.62,1.62,0,0,0,0-.19.93.93,0,0,0-.68-1.08l-.4,0-.25.12-.27.28a.71.71,0,0,0-.18.42.87.87,0,0,0,0,.23l.14.33.18.18.33.17Z"/><path class="cls-9" d="M258.46,146.88l-.26.13-.12.08a.9.9,0,0,0-.26.36l0,.43.14.26.08.11a.82.82,0,0,0,.36.25l.45,0,.27-.13.12-.08a.9.9,0,0,0,.26-.36l0-.43-.13-.25a1,1,0,0,0-.46-.37Z"/><path class="cls-9" d="M236.76,145.08a1.23,1.23,0,0,0-.12.26v.29l.06.19c.05.08,0,.21,0,.21l-.06.35.12.41.18.22.3.16.49.08.34-.14.33-.44a.76.76,0,0,1,.09-.95l0-.31a1,1,0,0,0-.79-.73A.93.93,0,0,0,236.76,145.08Z"/><path class="cls-9" d="M267.77,150.53l.35-.13.2-.17.18-.33,0-.17,0-.24-.06-.17-.13-.21a1,1,0,0,0-.84-.29.89.89,0,0,0-.68.57v.45l.15.28.11.14A.93.93,0,0,0,267.77,150.53Z"/><path class="cls-9" d="M262.79,148.65l0,.22.07.3.13.16.28.16.23,0,.27-.08.2-.12a.92.92,0,0,0,.49.31.85.85,0,0,0,1-.57l0-.39a2.21,2.21,0,0,0-.11-.38l-.44-.35-.27,0-.31,0-.21.09-.22.2-.2-.08h-.19l-.28.08-.22.16Z"/><path class="cls-9" d="M235.07,114.44l-.17,0-.23.08a1.07,1.07,0,0,0-.47.74,1.13,1.13,0,0,0,.32,1,1.11,1.11,0,0,0,1,.28l.33-.18.17-.19.13-.34a1.22,1.22,0,0,0-.79-1.36Z"/><path class="cls-9" d="M237.16,129.85l.18-.29a1.35,1.35,0,0,0,.47-.26,1,1,0,0,0,0,.3l.08.23.1.14.17.17a1.48,1.48,0,0,0,.69.21.53.53,0,0,1-.25-.17l.49.25h.36l.47-.28L240,130a1.16,1.16,0,0,0,.22-.51,2.05,2.05,0,0,0,0-.49l-.14-.28-.14-.16-.27-.17a.79.79,0,0,0-.45-.32l-.49.06-.27.17-.24.38a.35.35,0,0,1,.11-.22,1.54,1.54,0,0,0-.25.27,2.64,2.64,0,0,0-.09-.43,1.78,1.78,0,0,0-.69-.62.41.41,0,0,0-.22-.1,1.42,1.42,0,0,0-.91,0l-.27.18-.15.18-.12.3a1.11,1.11,0,0,0,0,.26,1.17,1.17,0,0,0,.1.26l-.07.29a1.23,1.23,0,0,0,0,.2,1,1,0,0,0,1,.84Z"/><path class="cls-9" d="M256.06,143.23l-.24-.29a1.42,1.42,0,0,1-.16-.19l-.28-.16-.22,0-.23.06a3.57,3.57,0,0,0-.33.14l-.17.15-.17.31a1.13,1.13,0,0,0,.38,1.15l.65,0,.16-.11a.88.88,0,0,0,.7-.55Z"/><path class="cls-9" d="M259.71,144.92l.17.22.36.21.27,0,.4-.09.23-.16.22-.33a.58.58,0,0,0,.11-.27.85.85,0,0,0-.57-.9h-.43a2.16,2.16,0,0,0-.47.15l-.19.17-.17.31,0,.26Z"/><path class="cls-9" d="M257.48,140.41l.13-.27c0-.12.05-.19.06-.25a.83.83,0,0,0-.79-1,1.08,1.08,0,0,0-.77-.17l-.19.07-.14.07-.16.14a1.05,1.05,0,0,0-.18.42.9.9,0,0,0,.61,1,2.37,2.37,0,0,0,.44.23.56.56,0,0,1-.25-.08,1,1,0,0,0,.57.21l.45-.18Z"/><path class="cls-9" d="M251.43,139a.86.86,0,0,0,.61-.55V138s-.15-.42-.15-.42l-.18-.18-.32-.17-.18,0-.38.08-.23.14a1.08,1.08,0,0,0-.32.38l.11.58.26.26A.79.79,0,0,0,251.43,139Z"/><path class="cls-9" d="M235.36,136.41a1,1,0,0,0-1.09.51v.5l.16.29.37.25.46.08.33-.12.36-.42,0-.26-.1-.39-.16-.22Z"/><path class="cls-9" d="M237.58,110l.24.28a.26.26,0,0,0,.27.15.34.34,0,0,0,.22-.22l-.11-.25c.05,0-.12-.2-.12-.2A.46.46,0,0,0,237.58,110Z"/><path class="cls-9" d="M250.18,122.38l.34-.16.32-.5a2.53,2.53,0,0,0,.15-.36l-.05-.41-.14-.24-.33-.26a1.37,1.37,0,0,0-1,.08l-.23.22-.11.19-.06.3a1.53,1.53,0,0,0,.53,1.06Z"/><path class="cls-9" d="M265.34,161.43l-.49.22c.13,0,0,0,0,0l-.31.13-.25.28-.07.6a1.5,1.5,0,0,0,1.15.79l.53-.16.17-.17a.82.82,0,0,0,.37-.46l0-.19v-.14l-.05-.2A1.23,1.23,0,0,0,265.34,161.43Z"/><path class="cls-9" d="M231.86,119.35a.84.84,0,0,0,.14-.94l-.13-.17-.14-.11-.19-.11-.24,0a.8.8,0,0,0-.41,0l-.3.13-.19.16-.17.25a.74.74,0,0,0,.05.6,1.13,1.13,0,0,0,.6.52A.91.91,0,0,0,231.86,119.35Z"/><path class="cls-9" d="M231,113.81s.09.1.14.14A.36.36,0,0,0,231,113.81Z"/><path class="cls-9" d="M228.33,113.18a.84.84,0,0,0-.41,1.15.66.66,0,0,0,.14.2l.35.19.27,0,.41-.08a1.44,1.44,0,0,0,.37-.29l0,.38a1.12,1.12,0,0,0,1.05.58l.36-.1.22-.16.21-.31a.87.87,0,0,0-.05-.64.47.47,0,0,0-.18-.19l-.31-.26-.28-.1-.45,0-.24.12-.2.23a.72.72,0,0,0,0-.36l-.32-.33-.14,0a2.64,2.64,0,0,1-.3-.1Z"/><path class="cls-9" d="M244,102.21l0-.56-.16-.23-.25-.2-.22-.08-.32,0a1,1,0,0,0-.34.14,1,1,0,0,0-.33,1.27,1.16,1.16,0,0,0-.31,1.46,2.15,2.15,0,0,0,.38.35l.26.08.4,0a1,1,0,0,0,.58-1.38l-.14-.18.25-.26A2.29,2.29,0,0,0,244,102.21Z"/><path class="cls-9" d="M233.17,136.61l.05-.22a.93.93,0,0,0-.11-.47,1,1,0,0,0-1.22-.43,1,1,0,0,0-.69,1.11l.26.34.25.14.32.08a1,1,0,0,0,.93-.22l.14-.18Z"/><path class="cls-9" d="M236.92,117.06l-.48.22-.21.27-.07.53.06.15a1,1,0,0,0,1.49.41l.24-.3.08-.25,0-.39A1.17,1.17,0,0,0,236.92,117.06Z"/><path class="cls-9" d="M247.9,132.38a.22.22,0,0,0,0,.1S247.91,132.41,247.9,132.38Z"/><path class="cls-9" d="M259,134.9l-.15-.2-.31-.21h-.21l.16-.08.11-.26,0-.2-.09-.28-.12-.14-.29-.17-.21,0-.3.08-.17.13-.16.24s-.45-.19-.45-.19l-.33,0a1.23,1.23,0,0,0-.25-.57,1,1,0,0,0-.36-.3l.1-.15-.27-.13c-.17-.09.25-.25.25-.25l-.16-.39-.19-.24a.77.77,0,0,0-.7-.13.48.48,0,0,0-.19.09.88.88,0,0,0-.16-.28l-.26-.16-.23,0-.31.07-.17.11-.17.28,0,.2.08.32.11.15.29.16.21,0c.09,0,0,.31,0,.31a.8.8,0,0,0-.46-.29,1.1,1.1,0,0,0-.4,0,.81.81,0,0,0-.1-.31c0-.06-.05-.07-.09-.13a1.06,1.06,0,0,0-.15-.41,1,1,0,0,0-1.07-.25l-.23.18c-.12,0-.46.42-.46.42l-.06.23s-.13.24-.13.24a.85.85,0,0,0-.73-.26.69.69,0,0,0-.28.11.93.93,0,0,0-.61-1,1,1,0,0,0-.58,0h-.17l-.38.15a1.14,1.14,0,0,0-.15.17.9.9,0,0,0-.1.77.47.47,0,0,1,0-.15l0,.39.13.24.31.26a2.85,2.85,0,0,0,.69,0,1.1,1.1,0,0,0,.24.68,1,1,0,0,1,0-.17l.19.37.23.19.42.11a1.83,1.83,0,0,0,1.14-.7l.15.07a1.77,1.77,0,0,0,.56.09l.17.19s.09.11.09.11a.76.76,0,0,0,.52.48l.32,0,.23-.08.27-.16c0-.06.08-.11.1-.15s.07-.13.13-.22a.85.85,0,0,0,.23-.17l-.15-.22c-.12-.15.3-.11.3-.11l.19.22a2.1,2.1,0,0,1,.06.31l.15.21a1.22,1.22,0,0,0,1.41.48l.14.24.13.09a.31.31,0,0,1,0,.28l0,.35.06.15a.81.81,0,0,0-1.43.38.92.92,0,0,0-.67.37,1.79,1.79,0,0,1-.21.35l0,.3.18.44a1,1,0,0,0,.74.22l.21-.07a1.59,1.59,0,0,0,.08.18.9.9,0,0,0,.61.46.8.8,0,0,0,.68-.18l.12-.17a1.21,1.21,0,0,0,.86-.11.9.9,0,0,0,.44-.64.94.94,0,0,0-.23-.76,1,1,0,0,0-.54-.28l.23-.05.25-.15.21.2a1,1,0,0,0,.82-.09,1,1,0,0,0,.46-.77.55.55,0,0,0,0-.19Zm-2.38,1.48a.78.78,0,0,0,0-.21l.11.08.16,0Zm.93-1.52a1.4,1.4,0,0,0-.17-.09.68.68,0,0,0,.11-.31l.18.11.15,0A.87.87,0,0,0,257.52,134.86Z"/><path class="cls-9" d="M227.8,93h.37a1,1,0,0,0,.71-1.27l-.13-.21-.12-.12-.21-.13a1,1,0,0,0-1.1.25.91.91,0,0,0-.14,1l.09.15.29.21Z"/><path class="cls-9" d="M260.8,140.06a1,1,0,0,0-1-.22,1.05,1.05,0,0,0,0-.24.8.8,0,0,0-.11-.25.78.78,0,0,0-1-.18.62.62,0,0,0-.22.83l.27.21a1.42,1.42,0,0,0,.2,0,1.1,1.1,0,0,0-.64.22l-.18.23-.07.2,0,.28a1.06,1.06,0,0,0,.1.3,1.09,1.09,0,0,0,.46.44l.33.16h.49a1,1,0,0,0,.49-.48l.18.11a1,1,0,0,0,1.06-.26.84.84,0,0,0,.1-1,.83.83,0,0,0-.18-.25Z"/><path class="cls-9" d="M236.34,122.67a.3.3,0,0,0,.06-.3l-.25-.15c.08,0-.21-.1-.21-.1a.44.44,0,0,0-.28.48l.37.1A.25.25,0,0,0,236.34,122.67Z"/><path class="cls-9" d="M250.3,127.1l.3.26.24.08a1.33,1.33,0,0,0,.28.1l.31,0a1.7,1.7,0,0,0,0,.24l.21.23-.24.37-.08.51.14.43.09.1.06.2.29.31a1,1,0,0,0,1.19-.34.83.83,0,0,0,.14-.32h.14l.2-.07a4.37,4.37,0,0,0,.25.4,1.17,1.17,0,0,0,1.29.39l.39-.51v-.39a1.32,1.32,0,0,0-.15-1.2l-.3-.2-.27-.14-.22-.07a.93.93,0,0,0-.68.19l-.08-.27c.08-.1.24-.18.35-.3a.72.72,0,0,0,.06-1,1,1,0,0,0-.18-.17,1.76,1.76,0,0,0-.29-.11s.15-.31.15-.31l0-.61a3,3,0,0,0-.09-.38l-.29-.32-.26-.12-.34,0a1,1,0,0,0-.45-.61.52.52,0,0,0-.09-.23l-.16-.13L252,123l-.24,0a.66.66,0,0,0-.54.39.56.56,0,0,0,0,.36,2.05,2.05,0,0,0-.1.34l.11.46a1.17,1.17,0,0,0,.7.45s0,.25,0,.25l.13.29a1.65,1.65,0,0,0,1,.56.91.91,0,0,0-.2.19c0,.06,0,.12-.05.18a.92.92,0,0,0-.7-.08.79.79,0,0,0-.1-.27l-.3-.26-.23-.08a1.66,1.66,0,0,0-.29-.1l-.44,0A1,1,0,0,0,250.3,127.1Z"/><path class="cls-9" d="M250,136.13l.56.22.37-.07.37-.22.17-.24c0-.11.35-.12.35-.12a1,1,0,0,0,.49-1.38l-.17-.19L252,134l-.23-.1a1,1,0,0,0-.84.24.86.86,0,0,0-.2.27,1,1,0,0,0-1,.86c0-.06.08.53.08.53Z"/><path class="cls-9" d="M230.76,121l-.44.17s0,0-.16.09a1.66,1.66,0,0,0-.47.23l-.23.45v.32l.22.45.13.09a1.58,1.58,0,0,0,1.46.41l.16-.07a2.64,2.64,0,0,0,.22-.18.87.87,0,0,0,.2-.51l.09-.27-.09-.5-.33-.44-.42-.22Z"/><path class="cls-9" d="M252.45,104.88l-.14,0a1,1,0,0,0-.46.07l-.31.33-.11.29,0,.14a.77.77,0,0,0,0,.24.53.53,0,0,0-.2.16.94.94,0,0,0-.16.46l-.18,0-.36.09a1.23,1.23,0,0,0-.59.73v.32l.05.17a1,1,0,0,0-1.14,0l0,.19a1.17,1.17,0,0,0-.51,1.11l.08.26.11.17.11.1a.78.78,0,0,0,0,.22.86.86,0,0,0-.19-.1,1,1,0,0,0-1.36.18c-.11.06-.14,0-.22-.06a.92.92,0,0,0-1,.2c-.08.12-.13.16-.17.22s-.17-.2-.17-.2a2.73,2.73,0,0,1-.18-.24l-.16-.16a1,1,0,0,0-.73-.11l-.13,0-.22.12a1.69,1.69,0,0,0-.48.83l-.18-.06a1.59,1.59,0,0,0,.19-.37l0-.42c0-.08-.1-.11-.14-.17a1.13,1.13,0,0,0,.07-.3l.17-.1a.93.93,0,0,0,.47-.87,1,1,0,0,0-.64-.8,2.23,2.23,0,0,0-.15-.42l-.17-.16s-.2-.22-.2-.22a1.64,1.64,0,0,1-.21-.45l-.11-.14-.34-.21-.27-.06a1.06,1.06,0,0,0-.55.06l-.22.29-.26.08-.37.38,0,.16a1,1,0,0,0,.21.8,1,1,0,0,0,.75.34c.06,0,.23.16.23.16a.34.34,0,0,1,0,.24.66.66,0,0,0-.24.11,1,1,0,0,0-.41.57v.23l0,.17.1.21a1.26,1.26,0,0,0,.57.45,1.83,1.83,0,0,0,.16.34l.24.22.15.1.17.08s-.06.08-.09.13a1.17,1.17,0,0,0-.09.24.66.66,0,0,0-.38-.07l-.31-.09a1,1,0,0,0-.65.09c-.05,0-.08-.11-.13-.14l-.18-.07-.14,0h-.19a2.8,2.8,0,0,0-.41,0l-.27.18a1.15,1.15,0,0,0-1.56-.09l-.2.34,0,.27.09.39.11.16a1.36,1.36,0,0,0,1,.58,1.33,1.33,0,0,0,.66-.24l.3.19.24,0a.68.68,0,0,0,.76,0,1.07,1.07,0,0,0,.72.09l0-.14a.1.1,0,0,0,.15,0,1,1,0,0,0,.75-.14l0-.2a1,1,0,0,0,.37.18l.35,0,.22-.1.25-.24.08-.19a1.24,1.24,0,0,0,.52.24l.58-.29.19-.33a2.05,2.05,0,0,0,.37-.61l.05.13c0,.08.15.26.15.26l.39.25.18,0,.26,0,.17,0,.22-.14a1.42,1.42,0,0,0,1,.17.84.84,0,0,0,.36-.25.38.38,0,0,0,.15,0,.87.87,0,0,0,.44-.76.91.91,0,0,0,.63.16.9.9,0,0,0,.79-.7.92.92,0,0,0,.48-.13.8.8,0,0,0,.37-.75,3.3,3.3,0,0,1-.06-.37l-.15-.24a.89.89,0,0,0,.4-.07l.28-.29.09-.2a.93.93,0,0,0,.75.16l.26-.13.16-.13.16-.25a1.21,1.21,0,0,0,.07-.61.82.82,0,0,0-.38-.52l.25-.28.1-.28,0-.14a.88.88,0,0,0-.08-.45l-.34-.3Z"/><path class="cls-9" d="M237.61,93.4l-.25-.15-.19,0h-.27c-.74.1-1.12.41-1.2.94v.14a2.24,2.24,0,0,0,0,.23,1.25,1.25,0,0,0,.15.28,1,1,0,0,0,.54.36l.36.1.51-.08a1.38,1.38,0,0,0,.65-.87,1,1,0,0,0-.21-.75Z"/><path class="cls-9" d="M246.06,126.81a1.36,1.36,0,0,0-1-1.07,1.35,1.35,0,0,0-.12-.64.88.88,0,0,0-.43-.4l.15-.1.16-.31.05-.35s0-.12,0-.28a.89.89,0,0,0-.87-.7l-.29.05-.18.08-.23.18a1.08,1.08,0,0,0-.19.83,1,1,0,0,0,.57.7l-.28.33,0,.25a.8.8,0,0,0-.07.85.88.88,0,0,0,.43.34,1,1,0,0,0-.08.24,1.13,1.13,0,0,0,0,.26l0,.13a2.19,2.19,0,0,0,.11.24,1.41,1.41,0,0,0,1.52.57l.23-.09s.16.08.16.08l-.15.1-.2.13-.1.24-.16,0a.9.9,0,0,0-.27.25l-.35-.2-.27,0a.51.51,0,0,1-.2,0l-.49.09-.44.32-.23.34,0,.28.09.41a1,1,0,0,0,.73.43h.16c.06,0,.1,0,.16,0a.71.71,0,0,0,.44.42h.2a.79.79,0,0,0,.89-.2l.13-.34V130l-.08-.18a.77.77,0,0,0,.43-.23l.14,0a1.07,1.07,0,0,0,1-1l-.19-.44-.24-.22a.75.75,0,0,0,0-.89A.71.71,0,0,0,246.06,126.81Z"/><path class="cls-9" d="M247.22,132.09l-.37-.35a1,1,0,0,0-.95-.14l-.16.1-.1.09-.11.15a.72.72,0,0,0-.05.21,1,1,0,0,0-.46-.07l-.35.13-.19.17-.25.22-.08.11-.06.18a.87.87,0,0,0,.21.67l.1.12.25.14.2,0,.28-.05.21-.08a.82.82,0,0,0,.77-.53,1,1,0,0,0,.69,0A.86.86,0,0,0,247.22,132.09Z"/><path class="cls-9" d="M244.27,137.87l.19.36a.9.9,0,0,0,.74.17l.16.11a1,1,0,0,0,.67-.11l.07.18a1,1,0,0,0,1,.37.84.84,0,0,0,.45-.3,1.38,1.38,0,0,0,.17.25l.21.15.17.06.24,0a1.59,1.59,0,0,0,.71-.22.47.47,0,0,1-.31,0l.56-.06.29-.21.23-.51a.66.66,0,0,1,0-.14,1.24,1.24,0,0,0,0-.18l.14-.06a1,1,0,0,0,.43-.71.88.88,0,0,0,0-.17l-.1-.31-.13-.2-.27-.2a1.08,1.08,0,0,0-.9.06.91.91,0,0,0-.42.59c0-.13,0-.28,0-.28l-.08-.22-.21-.26-.14-.09-.36-.07-.25,0a.88.88,0,0,0-.42.21l-.14.53.12.32a.62.62,0,0,0,.2.36l-.16-.09a1.06,1.06,0,0,0-.64.08,1,1,0,0,0-.23-.44,1.08,1.08,0,0,0-.7-.29.88.88,0,0,0-.12-.89.9.9,0,0,0-.19-.2l-.14-.07a2.11,2.11,0,0,1-.18-.24V135l-.08-.21-.19-.25c-.06,0-.12,0-.18-.06a1.49,1.49,0,0,0,.06-.26.81.81,0,0,0-.06-.42l-.35-.31-.3-.1-.14,0h-.15a1,1,0,0,0-.14-.24l-.35-.22-.29-.05a1,1,0,0,0-.85.29l-.15.35v.26l.11.36.11.14.35.22a2.43,2.43,0,0,1,.33.46,1,1,0,0,0,.61.15.47.47,0,0,0-.1.1l-.09.16,0,.13,0,.19a1.29,1.29,0,0,0,.28.76l.15.17.19.07a5.26,5.26,0,0,0,.47.44l0,.15.3.12-.1.26Z"/><path class="cls-9" d="M238.34,120.62a1,1,0,0,0-.64.43l-.08.37,0,.26.17.33a1.19,1.19,0,0,0,1.41.18.86.86,0,0,0,.25-1.13l-.51-.31A1,1,0,0,0,238.34,120.62Z"/><path class="cls-9" d="M224.71,106.51a1,1,0,0,0,.21.83l.12.14.34.17.26,0,.38-.07a1.11,1.11,0,0,0,.58-.73.94.94,0,0,0-.18-.77l-.1-.11-.36-.17h-.15a4.2,4.2,0,0,0-.58,0A.94.94,0,0,0,224.71,106.51Z"/><path class="cls-9" d="M237.28,124.64l.52.33a1.44,1.44,0,0,0,.54-.12c-.07,0,.47-.33.47-.33l.17-.36a1.13,1.13,0,0,0,.08-.45l-.23-.41-.26-.18-.47-.1a1.44,1.44,0,0,0-.85.64s-.12.64-.12.64Z"/><path class="cls-9" d="M239.63,114.29a1,1,0,0,0-.86-.16,1.12,1.12,0,0,0-.69.78l.1.5.21.26.48.22a1,1,0,0,0,1.07-1l-.06-.23-.09-.16Z"/><path class="cls-9" d="M226.23,119.69a1,1,0,0,0,.26.21,2.74,2.74,0,0,0,.18.4l.17.16.31.15a.91.91,0,0,0,1-.5.63.63,0,0,0,.2-.24.74.74,0,0,0,.21,0l.37-.22.19-.26-.16-.25s.06-.07,0-.15a.93.93,0,0,1,0-.14,3,3,0,0,0-.35-.38s-.18-.1-.18-.1a.67.67,0,0,0-.42,0,.59.59,0,0,0-.21.1.67.67,0,0,0-.19.19,1,1,0,0,0-.58-.37,1,1,0,0,0-1.19.51v.41l.12.26Z"/><path class="cls-9" d="M260.88,127a.93.93,0,0,0-.78-.71.88.88,0,0,0-.74.24,1,1,0,0,0-.32.85c.29.61.75.79,1.18.64A.91.91,0,0,0,260.88,127Z"/><path class="cls-9" d="M226.24,95.92h.17l.29-.06a1,1,0,0,0,.41-.38l.2-.19.16-.49-.1-.53-.28-.38-.28-.16-.48,0c-.05,0-.06,0-.18,0a2.33,2.33,0,0,0-.52,0l-.41.3-.16.29v.49l.07.14A1.5,1.5,0,0,0,226.24,95.92Z"/><path class="cls-9" d="M234.1,107.68a1.08,1.08,0,0,0,.51.32l.61-.2a1,1,0,0,0,.58-1.09l-.25-.36-.22-.14a.51.51,0,0,1-.17-.1l-.48-.13-.55.09-.35.22-.17.22-.11.41a.92.92,0,0,0,.45.69Z"/><path class="cls-9" d="M231.48,114.18l.37.11h.57l.33-.19.11-.08a.89.89,0,0,0,.23-.35l.24.24.21.11.33.06a1.55,1.55,0,0,0,.95-1l.2-.07.28-.31.11-.3-.22-.19c.07-.09.14-.14.19-.21a.77.77,0,0,0,.12-.53.89.89,0,0,0,.91-.75l-.17-.47a1,1,0,0,0-.79-.53l-.19,0a2.82,2.82,0,0,0-.3.12.85.85,0,0,0-.37.8.8.8,0,0,0-.65.2l-.16.35v.26l.09.29a1.48,1.48,0,0,1-.08.35.92.92,0,0,0-.68.16l-.19.26s-.19-.32-.19-.32a1.35,1.35,0,0,0-.23-.34l.24-.09.22-.21.1-.12a1,1,0,0,0,.13-.4l-.17-.43-.22-.21-.11-.09-.14-.07a1,1,0,0,0,0-.28l-.21-.34-.24-.17a1,1,0,0,0-.89-.1l-.29.24-.13.23-.07.37,0,.18.22.34.23.17a2.51,2.51,0,0,1,.34.62l.12.11a1.07,1.07,0,0,0-.27.09l-.15.11-.1.09L231,112a1.32,1.32,0,0,0-.1.79c0,.07,0,.14.06.22l.19.2a1.84,1.84,0,0,0,.16.54l-.08.12Z"/><path class="cls-9" d="M238.67,94l-.1.14a1,1,0,0,0-.09.59,2.2,2.2,0,0,0,.29.44l.2.12c.08.12.19.26.19.26l.23.15.41.08a1,1,0,0,0,.59-.31,1,1,0,0,0,.25,0l.4-.19.2-.21.15-.4,0-.19a1,1,0,0,0-1-.84l-.39.17a1.58,1.58,0,0,0-.16-.14,1,1,0,0,0-.45-.13l-.43.18Z"/><path class="cls-9" d="M257.31,105.74l.23-.07.28-.19a.94.94,0,0,0,.17-.75,1,1,0,0,0-.43-.64,1.08,1.08,0,0,0-.79-.13l-.36.26-.16.25-.06.42a1.12,1.12,0,0,0,.79.86Z"/><path class="cls-9" d="M232.6,102.54l.09-.26a1.82,1.82,0,0,0,0-.33,1.16,1.16,0,0,0-.54-.76,1.89,1.89,0,0,0-.25-.25l-.36-.13a1,1,0,0,0-.8.35,1.1,1.1,0,0,0-.28.92.91.91,0,0,0,.43.61,1.16,1.16,0,0,0,1.41.2l.2-.19Z"/><path class="cls-9" d="M231.38,98.9s-.41.52-.41.52l0,.37.31.51a1.27,1.27,0,0,0,.54.13,2.84,2.84,0,0,1,.57-.09l.31-.25a1,1,0,0,0,.28-.36l0-.47L232.8,99l-.38-.28A1.45,1.45,0,0,0,231.38,98.9Z"/><path class="cls-9" d="M239,82.44c.36-.07.72-.16,1.07-.24a2,2,0,0,1-.19.15A.88.88,0,0,1,239,82.44Z"/><path class="cls-9" d="M241.93,81.8c2.1-.44,3.85-.78,5.32-1a.88.88,0,0,1-.4.23,1,1,0,0,1-.3,0c0,.07,0,.15-.1.22l0,.17-.13.18-.18.18a1,1,0,0,1-1,0,.84.84,0,0,1-.5.46,1.07,1.07,0,0,1-1.31-.55s-.1,0-.16,0a1.18,1.18,0,0,1,.37.46l-.06.46-.17.24s-.4.22-.46.24l-.19.28a.69.69,0,0,0-.13.11,1.06,1.06,0,0,1-.86.16,1,1,0,0,1-.33-.15c.06.12.12.23.12.24a1,1,0,0,1-.79,1.19l-.38-.06-.21-.09-.07.2a2.12,2.12,0,0,1-.4.33c0,.1.13.17.17.26a.61.61,0,0,1,.07.17l0,.42-.13.26-.32.28a1,1,0,0,1-.82-.09,1.41,1.41,0,0,1-.4.29l-.39,0-.26-.06-.23-.18-.19.22s-.23-.19-.35-.11.08.29.16.29a1,1,0,0,1-.79.13.93.93,0,0,1-.53-.33l-.21-.09a1.18,1.18,0,0,1-.19-.22.93.93,0,0,1-.52.14A1,1,0,0,1,235,87a.91.91,0,0,1,.15.65.9.9,0,0,1-.38.55l-.44-.09-.36-.07-.06-.11a.6.6,0,0,0,.27.07s-.19-.16-.19-.2l-.13-.06s-.16-.13-.25-.11a.48.48,0,0,1,0-.18.57.57,0,0,1,.08-.37l.07-.39a.82.82,0,0,1,.46-.13.88.88,0,0,1-.27-.39.94.94,0,0,1,0-.29,1,1,0,0,1-.28-.67l.09-.29.12-.17a2.72,2.72,0,0,1,.36-.24,1,1,0,0,1,.76.1l.25.16a.76.76,0,0,1,.38.19l.1.16s.06-.07.09-.09a.94.94,0,0,1,1,0l.5.37s0,.09,0,.13l.34-.3a1.46,1.46,0,0,1,.48,0l.19.09.17-.14c-.05-.1-.13-.17-.17-.26l0-.45.12-.27s.3-.32.38-.33a1,1,0,0,1,1.05,0c0-.09,0-.18.06-.25a1,1,0,0,1,.64-.56l.56.08s-.06-.17-.1-.3v-.18a1.07,1.07,0,0,1,.44-.63,2.44,2.44,0,0,1,.44-.19Z"/><path class="cls-9" d="M250.19,81.24v.17l0,.22a1.11,1.11,0,0,1-.85.81,1,1,0,0,1-.86-.35,1.14,1.14,0,0,1-.37-.11l-.21-.13-.11-.16a.76.76,0,0,1-.27-.21.89.89,0,0,1-.11-.2s0-.31,0-.35l-.06-.17c.88-.16,1.66-.29,2.33-.38a1.52,1.52,0,0,1,.31.31,3.66,3.66,0,0,1,.23.33Z"/><path class="cls-9" d="M229.36,109.39h.43a.69.69,0,0,0,.44-.15,1.19,1.19,0,0,0,.18-.15l.17-.33,0-.26-.09-.36-.16-.22-.32-.23-.27-.06-.4,0-.17.1a.93.93,0,0,0-.39,1.25l.3.27Z"/><path class="cls-9" d="M217.1,89.78a.9.9,0,0,0,.52.3h.2l.14,0,.21-.08a1.18,1.18,0,0,0,.64-1.08l-.29-.44c0,.12-.06,0-.06,0l-.17-.28-.32-.2h-.63a1.48,1.48,0,0,0-.67,1.21l.23.49Z"/><path class="cls-9" d="M238.72,106.26l.27.07a1,1,0,0,0,.52,0l.38-.47,0-.35a.89.89,0,0,0-.39-.84.81.81,0,0,0-.86,0l-.26.28-.1.24a1.8,1.8,0,0,0-.09.28l.07.45.11.15Z"/><path class="cls-9" d="M228.38,90.23l.33-.14.18-.16.17-.3a1,1,0,0,0-1.6-1.07,1.57,1.57,0,0,0-.24.21l-.13.28,0,.22.05.31A1.14,1.14,0,0,0,228.38,90.23Z"/><path class="cls-9" d="M232.08,97.88l.1.15.36.24.29,0,.29,0a1,1,0,0,0,.69.16,1.18,1.18,0,0,0,.7-.14l.22-.28.06-.16a1.51,1.51,0,0,0,.12-.26l0-.42a1.14,1.14,0,0,0-1.28-.65l-.32.13a.31.31,0,0,1-.17,0,1,1,0,0,0-.77.15l-.16.12-.18.35,0,.26Z"/><path class="cls-9" d="M240.06,101.63l-.17-.1-.28-.08a1,1,0,0,0-.53.11.86.86,0,0,0-.48-.06l-.17.07a1.74,1.74,0,0,0-.25.19.82.82,0,0,0-.11.92c0,.08.12.11.18.17a.82.82,0,0,0,.46.46l-.05.22.05.39a1,1,0,0,0,.66.52,1.07,1.07,0,0,0,.81-.15,4.13,4.13,0,0,0,.29-.41l.05-.27-.09-.39-.16-.23a1.31,1.31,0,0,0,0-1.16Z"/><path class="cls-9" d="M238.84,96.12l-.27-.17-.17-.06a.84.84,0,0,0-.44,0l-.37.28-.16.27a1.2,1.2,0,0,0-.28.5,1,1,0,0,0,.19.77l.09.1.34.17.26,0,.37-.07a1.22,1.22,0,0,0,.52-.51l.27.24.3.1.15,0c0,.07-.12.28-.12.28l-.07.38a1,1,0,0,0,.2.37l-.1.16,0,.45a1.07,1.07,0,0,0,.83.73l.47-.14.23-.22a1.06,1.06,0,0,0,1.29.42s0-.45,0-.45l.29.31.3-.27.14-.2a.88.88,0,0,0-.26-1.08l-.11-.07a1.91,1.91,0,0,0-.23-.1,1.14,1.14,0,0,0-.85.18,1.53,1.53,0,0,0-.36.32,1.38,1.38,0,0,0-.15.26,1.12,1.12,0,0,0-.09-.22,2.57,2.57,0,0,0,.19-.55,1,1,0,0,0-.49-.71.94.94,0,0,0-.24-.06l.2-.19.11-.28,0-.13a.85.85,0,0,0-.06-.46l-.32-.31-.29-.1-.14,0a1,1,0,0,0-.32,0,1,1,0,0,0-.46.06l-.21.22Z"/><path class="cls-9" d="M225.79,79.78l-.24.36-.05.29.08.33.27.42.35.15.58-.06a1.23,1.23,0,0,0,.58-.79,1,1,0,0,0-.2-.73l-.36-.21-.29-.05-.41.09Z"/><path class="cls-9" d="M236.06,90.74l-.4,0a1,1,0,0,0-.29-.54L235,90l-.27,0-.36.09-.16.1s-.42-.36-.42-.36a.94.94,0,0,0-.59-.22.88.88,0,0,0-.69.3l-.15.34,0,.26a1.24,1.24,0,0,0-.11.73l.32.4.31.14.53,0a1.12,1.12,0,0,0,.53-.58c0,.1.46.45.46.45l.36.06c.07,0,.07.19.07.19a.94.94,0,0,0,1.27.55l-.09-.37.2.3.26-.17.25-.39a.86.86,0,0,0-.34-.84Z"/><path class="cls-9" d="M244.21,104.08l-.35.32-.11.3a1,1,0,0,0-.73.12,1.06,1.06,0,0,0-.43.92l.23.45.28.19.52.07a1,1,0,0,0,.72-.7l.26,0,.38-.09.15-.1.18-.18.09-.16.07-.24a.87.87,0,0,0-.34-.82A1,1,0,0,0,244.21,104.08Z"/><path class="cls-9" d="M246.76,84.35a.64.64,0,0,0-.34.38.69.69,0,0,0,.05.54l.25-.12S247,85,247,85a.2.2,0,0,0,.22,0c0-.06,0-.11,0-.14l.51-.24A.73.73,0,0,0,246.76,84.35Z"/><path class="cls-9" d="M307.6,80.4a1.43,1.43,0,0,0-.13-.14A.4.4,0,0,0,307.6,80.4Z"/><path class="cls-9" d="M247,106.91a.85.85,0,0,0-.64.82.8.8,0,0,0,0,.43,1,1,0,0,0-.11.34,1.14,1.14,0,0,0,.28.88l.35.2.27,0,.41-.08a1,1,0,0,0,.4-1.37.89.89,0,0,0,0-.78A.91.91,0,0,0,247,106.91Z"/><path class="cls-9" d="M241.62,117.38a.85.85,0,0,0-.43.52.77.77,0,0,0-.11.54.81.81,0,0,0,.9.64.93.93,0,0,0,.7-.33c.06-.1.13,0,.13,0l.23.14a2.59,2.59,0,0,0,.28.13h.49L244,119l.11-.09v.16a1.17,1.17,0,0,0,.09.24c0,.11.15.47.15.47a2.17,2.17,0,0,0,.11.22,1,1,0,0,0,1.22.53l.36-.37.1-.32,0-.4a1.44,1.44,0,0,0-.07-.16,1.08,1.08,0,0,0,0-.81l-.17-.2-.16-.11-.24-.11a1.22,1.22,0,0,0-.21-.64,3,3,0,0,0-.31-.2l-.2,0-.28.06a.76.76,0,0,0-.32.37.91.91,0,0,0-.65-.29,1.32,1.32,0,0,0,.1-.3.71.71,0,0,0,0-.25,1,1,0,0,0,.51-.11l.27-.33.08-.28,0-.42a1,1,0,0,0-.11-.17,1.06,1.06,0,0,0-.32-.28,1,1,0,0,0-.35-.47l-.17-.08-.14,0-.19,0a1.06,1.06,0,0,0-.64.24.6.6,0,0,1,.24-.09l-.37.19-.18.21-.14.38-.31.34-.09.3,0,.17a1,1,0,0,0,.16.5.68.68,0,0,0-.12.24A.78.78,0,0,0,241.62,117.38Z"/><path class="cls-9" d="M251,113.83s.21-.19.21-.19.18,0,.23,0a.14.14,0,0,0,0-.14l.46-.33a.67.67,0,0,0-.33-.18l0-.14,0-.34s0-.13-.07-.27a.86.86,0,0,0-1-.43l-.26.12-.15.12-.17.23a1.08,1.08,0,0,0,.06.84,1,1,0,0,0,.72.51.7.7,0,0,0,.11.39Z"/><path class="cls-9" d="M225.92,90.93l.16-.05a2.44,2.44,0,0,0,.25-.14.8.8,0,0,0,.28-.46l.14-.24v-.5l-.25-.48-.37-.28-.31-.08-.46.09a.32.32,0,0,1-.17.06,2,2,0,0,0-.49.15l-.31.39-.06.32.13.46.11.12A1.55,1.55,0,0,0,225.92,90.93Z"/><path class="cls-9" d="M234.73,80.21l-.26.3-.08.26,0,.39.08.17a1.3,1.3,0,0,0,.83.72,1.18,1.18,0,0,0,1-.25l.21-.36,0-.27-.1-.39C235.77,79.87,235.14,80,234.73,80.21Z"/><path class="cls-9" d="M235.61,98.5l.36,0,.29-.06-.22.23-.1.26v.42a1,1,0,0,0,.56.5l.4.17.22,0c0,.08.05.15.08.22a1,1,0,0,0,.48,1.09l.35.11h.26l.36-.13a.94.94,0,0,0,.32-.55.48.48,0,0,0,0-.25.23.23,0,0,0,0-.13.88.88,0,0,0,.08-.77l-.36-.34a1,1,0,0,0-.5-.32.83.83,0,0,0-.08-.43l-.33-.28-.26-.08a.4.4,0,0,1-.19,0h-.49l-.23.11a3.69,3.69,0,0,1,.54-1.47.88.88,0,0,0-.29-.71l-.35-.15-.26,0-.37.09-.15.1-.23.31-.07.26a.94.94,0,0,0,0,.41l-.18.25-.07.25a.93.93,0,0,0,0,.54Z"/><path class="cls-9" d="M236.84,103.43a1.17,1.17,0,0,0,.48-.73,1.12,1.12,0,0,0-.22-.9,1.14,1.14,0,0,0-.65-.42h-.2l-.15,0-.19,0a1,1,0,0,0-.54.73,1,1,0,0,0-.9.13l-.21.31-.06.25.05.37.08.16.14.12a.94.94,0,0,0,.35,1.79.84.84,0,0,0,.31,0,1.18,1.18,0,0,0,.07.45.94.94,0,0,0,.12.18l.24.15c0,.1.3.46.3.46l0,.14.31.19h.38l.54-.15.25-.26a.91.91,0,0,0,.12-1,.66.66,0,0,0-.14-.2c0-.09.11-.15.13-.25l-.14-.46-.21-.23a1.08,1.08,0,0,1-.13-.2.49.49,0,0,0-.16-.16s.06-.14.06-.14A1.27,1.27,0,0,0,236.84,103.43Z"/><path class="cls-9" d="M232.71,94.17l-.37,0a1,1,0,0,0-.67.55,1.07,1.07,0,0,0,0,.94.87.87,0,0,0,.58.46,1.11,1.11,0,0,0,1.39-.19l.14-.23.06-.18v-.27a1.33,1.33,0,0,0-.11-.3,1.17,1.17,0,0,0-.73-.58A2.12,2.12,0,0,0,232.71,94.17Z"/><path class="cls-9" d="M233.38,92.73l-.15-.44-.22-.22-.44-.17a1.4,1.4,0,0,0-.93.48,5.24,5.24,0,0,0-.24.59l.09.36.44.4a1.36,1.36,0,0,0,.55,0c-.07,0,.52-.24.52-.24l.22-.32A1.08,1.08,0,0,0,233.38,92.73Z"/><path class="cls-9" d="M238.52,90.05l.45-.12.19-.17a1,1,0,0,0,1.07.59l.46-.35.14-.34,0-.45a1,1,0,0,0-.67-.54c0-.1-.07-.21-.12-.31l-.31-.27-.26-.1H239a.6.6,0,0,0-.24.06,1.08,1.08,0,0,0-.83-.11l-.33.22-.16.23-.1.38,0,.2a1.27,1.27,0,0,0,.6.92,1,1,0,0,0,.28.08A.72.72,0,0,0,238.52,90.05Z"/><path class="cls-9" d="M228.07,96.59l.13.32.17.18.32.17a1.61,1.61,0,0,0,.57-.05,1.62,1.62,0,0,1,.18.19l.27.13.44,0a1,1,0,0,0,.66-.55l0-.23v-.21l-.06-.23a1.14,1.14,0,0,1,.23-.28l.1-.22,0-.35a1,1,0,0,0-.9-.73l-.43.17-.21.23-.09.13c0,.09-.27.06-.27.06l-.17,0a1,1,0,0,0-.65.5A.79.79,0,0,0,228.07,96.59Z"/><path class="cls-9" d="M234.94,83l0,.23a1,1,0,0,0,1,.77l.32.08.23,0a.9.9,0,0,0,.6-.53l.17,0a.9.9,0,0,0,.69-.65,1,1,0,0,0-.46-1l-.19-.1-.14,0-.22,0a2,2,0,0,0-.38.07,1.4,1.4,0,0,0-.75.48,1,1,0,0,0-.25,0,.83.83,0,0,0-.53.4l-.08.2Z"/><path class="cls-9" d="M244.17,91.05a1,1,0,0,0-.53.4l-.07.19,0,.14V92c.09.37.38.81,1.22.76a4.22,4.22,0,0,0,.48-.25l.17-.26,0-.49A1.16,1.16,0,0,0,244.17,91.05Z"/><path class="cls-9" d="M253.34,111.37l-.09-.11a.91.91,0,0,0-.11-.22s0-.19,0-.19a1,1,0,0,0-.46-.74,1,1,0,0,0-.76-.1l-.14,0-.27.25-.06.12c0,.1-.17.51-.17.51a.91.91,0,0,0,.31.54.9.9,0,0,0,0,.57l.17.13a.77.77,0,0,0-.1.35l.16.43.23.21.12.1a1.11,1.11,0,0,0,.4.12l.45-.16.23-.21.09-.12a1,1,0,0,0,.14-.41l-.16-.39a1.85,1.85,0,0,0,.08-.33Z"/><path class="cls-9" d="M228.64,84.82l-.2.21-.09.12c0,.09-.25.06-.25.06l-.16,0a.91.91,0,0,0-.63.46.76.76,0,0,0-.37.67l.12.31.16.17.3.17a1.48,1.48,0,0,0,.54,0,1.12,1.12,0,0,0,.81-.61.48.48,0,0,0,0-.17.9.9,0,0,0,.44,0,2.46,2.46,0,0,0,.4-.29l.11-.21,0-.33a.93.93,0,0,0-.84-.71Z"/><path class="cls-9" d="M241.88,64.1c0,.1,0,.15-.07.19A.32.32,0,0,0,241.88,64.1Z"/><path class="cls-9" d="M248.09,91.91a1.89,1.89,0,0,0-.19-.24l-.13-.33a1.05,1.05,0,0,0-1.32-.52l.12-.2,0-.44a.36.36,0,0,1,0,.15,1.08,1.08,0,0,0,0-.5v-.58a.94.94,0,0,0,.9-.07.86.86,0,0,0,.42-.68.94.94,0,0,0-.31-.8l-.34-.14-.27,0-.36.09-.29.19.06-.17,0-.41a.52.52,0,0,1,.06.21.92.92,0,0,0-.11-.54l-.18-.13a.68.68,0,0,1,.14-.11l.19-.2.08-.11a1,1,0,0,0,.07-.39l-.17-.37-.21-.16a.87.87,0,0,0-.52-.17l-.22.11-.31,0c-1,.43-.82,1.13-.73,1.33l.16.15-.17.13a2.55,2.55,0,0,0-.27.52.79.79,0,0,0,.06.22l-.14,0-.32,0a1,1,0,0,0-.35.06l.08-.33a2.39,2.39,0,0,0-.15-.39,1.19,1.19,0,0,0,.57-.61,1.13,1.13,0,0,0,.19-.28l.08-.37,0-.16-.21-.34-.21-.18a.9.9,0,0,0-.33-.09.71.71,0,0,0,.1-.39,1,1,0,0,0,.94.41l.34-.19.17-.18.12-.35a.74.74,0,0,0-.06-.8l-.25-.22-.21-.07-.36,0a1.21,1.21,0,0,0-.75.5l-.07.16,0,.13v.17a.93.93,0,0,0-1-.35l-.14.24a.87.87,0,0,0-.32,0l-.38.48,0,.37a.72.72,0,0,0,.3.77,1,1,0,0,0,.48.13s-.09.06-.13.13a.71.71,0,0,0,0,.66l-.17.13-.12.15-.09.2c-.17.63,0,1,.4,1.28a2.63,2.63,0,0,0,.32.09,1.42,1.42,0,0,0,.29,0l.17-.07a.75.75,0,0,0,0,.22l-.25-.06a1,1,0,0,0-.72.3l-.15.35,0,.26.11.37.1.15a2,2,0,0,0-.5.18l-.19.24-.08.15s0,.11,0,.16l-.13,0-.25,0-.34.07a1.26,1.26,0,0,0-.65,1.09l.42.5c.06.09,0,.24,0,.24l-.08.22a1.18,1.18,0,0,0,.1.59l.25.24.25.13.36.06a.29.29,0,0,0,.17-.06.68.68,0,0,0,.27-.07.76.76,0,0,0,.36-.5l.15.11a2.63,2.63,0,0,1,.14.3.86.86,0,0,0,.61.48.82.82,0,0,0,.7-.17l.19-.29,0-.13s0-.13,0-.13v-.48l-.07-.17-.2-.2-.17-.11a.93.93,0,0,0-.19-.69.84.84,0,0,0-.49-.31l.15-.2a.85.85,0,0,0-.08-.83,1.21,1.21,0,0,0,.77-.43,1.07,1.07,0,0,0,.13-.33l.19.09-.06.24,0,.37.12.11s0,0,0,0a.48.48,0,0,1,0,.15s0-.06-.06-.08a.83.83,0,0,0,.2.46l.45.21h.35l.28-.1a1.2,1.2,0,0,0,1,.17l-.08.11-.09.3c0,.07,0,.14,0,.22a1.12,1.12,0,0,0,.49.74.63.63,0,0,0,.1.27,1,1,0,0,0,1.18.46l.32-.29.12-.28v-.44A.55.55,0,0,0,248.09,91.91Zm-2-3.54,0,.33a1,1,0,0,0-.54,0l-.32.24-.19-.1c0-.18,0-.24,0-.27l.38-.19a1.23,1.23,0,0,0,.57,0l.14-.13Z"/><path class="cls-9" d="M280,112l-.25-.17-.42-.09-.27,0a2.84,2.84,0,0,0-.25-.28s.14,0,.14,0l.19,0a1.68,1.68,0,0,0,.24-.08l.2.13.4.06c-.52-1.68-1.87-6-3.46-10.89l-.25.09a1,1,0,0,0-1.12-.17,1,1,0,0,0-.06-.42l.4-.22.1-.15.07-.22,0-.19-.06-.24c0-.07-.09-.11-.13-.16a.8.8,0,0,0,.13-.41l.25.11c-.8-2.45-1.62-4.95-2.42-7.22,0,0,0,0-.06,0a.12.12,0,0,0,0-.08c-.63-1.82-1.24-3.5-1.77-4.87a8.35,8.35,0,0,0-1.95-3,.82.82,0,0,0-.42.44s-.13-.11-.13-.11a.82.82,0,0,0,.28-.39l-.07-.26A11.71,11.71,0,0,0,265,80.82s0,.06,0,.07.06.24,0,.24a1,1,0,0,0-.49.28.72.72,0,0,0-.25.74l.06.15a1.48,1.48,0,0,1-.21,0s-.06.06-.12.08a.28.28,0,0,0,.06-.22.27.27,0,0,0-.14-.06l-.11-.48a.64.64,0,0,0-.29.22,1.13,1.13,0,0,1,.18-.24v-.14a1.07,1.07,0,0,0,.18-.32.73.73,0,0,0,0-.22l-.07-.15a.64.64,0,0,0,.17.13l.17.06a1.46,1.46,0,0,0,.29,0,.51.51,0,0,0,.17,0,.71.71,0,0,0,.31-.17,25.77,25.77,0,0,0-8.46-1l.17.11.12.07H257a1,1,0,0,0,.57.1,1.32,1.32,0,0,0,0,.24v.16l0,.17a1.11,1.11,0,0,0,.07.16.79.79,0,0,0,.35.37c.07.1.23.19.27.28a1,1,0,0,0,.95.52l.34.13s.06.11.1.22a.54.54,0,0,0-.25.09.84.84,0,0,0-.27.41l-.38,0a.89.89,0,0,0-.63,1,.77.77,0,0,0-.32-.13,1,1,0,0,0-.71.16,1,1,0,0,0-.78.15s-.36.37-.36.37l-.06.22a1.48,1.48,0,0,0-.42,0,2.78,2.78,0,0,1-.52.2l-.24.28-.12.46a.75.75,0,0,0-.06-.48l-.24-.27-.18-.11-.26-.13c.05-.08.13-.15.19-.23a1,1,0,0,0,.19-.83.47.47,0,0,0,0-.16l-.25-.32-.13-.07a.89.89,0,0,0,.4-.39.78.78,0,0,0,0-.48l.23,0,.17-.08a.43.43,0,0,1,.17-.09,2.36,2.36,0,0,0-.09.52l.17.37a1.18,1.18,0,0,0-.14.68l.33.35.32.15a1.12,1.12,0,0,0,.63,0l.29-.13c.28-.06.4-.06.51-.1a.87.87,0,0,0,.56-.46.9.9,0,0,0,0-.37,1,1,0,0,0,0-.81.92.92,0,0,0-.61-.48l-.18,0,.06-.13,0-.31a1.17,1.17,0,0,0-.15-.34,1.06,1.06,0,0,0-.5-.31,1.87,1.87,0,0,0-.61-.61l-.06,0v0c-.91,0-1.6.13-2,.16l-.31,0s-.63,0-2.12.2c0,.13,0,.32,0,.32l.1.15a1.46,1.46,0,0,0-.4.42.86.86,0,0,0,0,.81,1.12,1.12,0,0,0,.16.22.93.93,0,0,0-.56.52,1,1,0,0,0,0,.52c-.06-.08-.14-.13-.19-.19a.84.84,0,0,0-.71-.07l-.12.09a.41.41,0,0,0-.05-.17,1.4,1.4,0,0,0-.12-.18l-.32-.18-.25-.06-.38,0-.15.09-.29.28-.1.24a.9.9,0,0,0,0,.49l.36.41c.06,0,0,.2,0,.2a.75.75,0,0,0,.3.61l.17.09a1.71,1.71,0,0,0-.23.12l-.19.35a1,1,0,0,0-.82-.06l-.19.13-.11.11-.12.19a1,1,0,0,0,.06.77,1.44,1.44,0,0,0,.34.43l.25.4s.08.13.06.19l.09.16a3.9,3.9,0,0,0,.71.24c0,.06,0,.57,0,.57a.94.94,0,0,0,.37.41l-.33,0-.15.07-.29.31-.09.28,0,.41.12.24.3.27.2.06a.84.84,0,0,0,.47.72l-.05.13a1,1,0,0,0-.18,1.11,1.65,1.65,0,0,0,.21.27s-.13.08-.13.08a.84.84,0,0,0-.34,1.07l.32.27a.83.83,0,0,0,.42.21,2.55,2.55,0,0,0,0,.48c0,.05.06.11.08.15a1,1,0,0,0,1.39.51,1.4,1.4,0,0,0,.71-1.05.28.28,0,0,0-.06-.18,1.19,1.19,0,0,0,.57-.21c.08,0,.08-.13.14-.2l.28.18a1.07,1.07,0,0,0,.82,0,.67.67,0,0,0-.15.29,1.12,1.12,0,0,0-.48.28,1,1,0,0,0-.19.83.53.53,0,0,0,0,.17s.23.29.29.35a2.71,2.71,0,0,0-.57,0l-.1.09a1,1,0,0,0-1,.19,1.12,1.12,0,0,0-.25,1.29,1.82,1.82,0,0,0-.57-.35,2.83,2.83,0,0,1-.29,0,1,1,0,0,0-1.08-.89l-.16,0,.12-.16.07-.11a.77.77,0,0,0,.06-.15l.52-.09a.68.68,0,0,0-.67-.5,2.18,2.18,0,0,0-.25-.22.83.83,0,0,0-.53-.15l-.39.18-.19.23a.81.81,0,0,0-.15.51l.08.15-.5-.22c-.93.11-1.09.63-1.11.92l-.19.06a1.22,1.22,0,0,0-.26-.3,1,1,0,0,0,.15-.61l-.23-.38-.27-.19-.46-.09a1.19,1.19,0,0,0-.36,0l-.27,0-.36.09-.23.15-.25.35-.05.3.09.4.15.22.35.22.25.06a1.29,1.29,0,0,0,0,.48v.22c0,.08,0,.15,0,.2a.87.87,0,0,0-.24.5l.13.39.11.17a1.27,1.27,0,0,0,.12.33l.21.22-.12.2-.07.37a1,1,0,0,0,.88.85,1.26,1.26,0,0,0,1.14.76l.38-.17.14-.11s.32.32.32.32l.25.09h.4a1.06,1.06,0,0,0,.57-.43c.06,0,.23.24.23.24a3.8,3.8,0,0,0-.34.35,1.06,1.06,0,0,0-.14.71.55.55,0,0,0,.14.23h-.29a.89.89,0,0,0-.82-.6l-.3,0-.21.09-.23.19a1,1,0,0,0-.17.75,1,1,0,0,0,1,.76l.05.17c-.07,0-.11.13-.15.16a1.47,1.47,0,0,1,.17-.13l-.24.26-.14.24,0,.41a2.68,2.68,0,0,0,.12.24,1.16,1.16,0,0,0,1.12.7,1.11,1.11,0,0,0,1.22,1,1,1,0,0,0,.81-1.22l-.37-.43-.34-.14c-.11,0,0-.34,0-.34a.51.51,0,0,0,0-.35.62.62,0,0,0-.14-.31,1,1,0,0,0,.58-.28,1.25,1.25,0,0,0,.23-.35l0,.15.08.16.1.15.38.28.19,0,.4-.09.23-.17.23-.35a1,1,0,0,0,0-.5l0-.24-.32-.41a1,1,0,0,0-.71,0,4.11,4.11,0,0,1-.27-.35l-.23-.17-.44-.09-.19,0a.61.61,0,0,0-.13-.31,2.16,2.16,0,0,0,.42-.35s.15,0,.15,0l.1.1a1.14,1.14,0,0,0,.44.13l.44-.15.22-.22.08-.11A.66.66,0,0,0,251,101a.5.5,0,0,1,.32.11.63.63,0,0,0-.08.34,2.5,2.5,0,0,0-.34.4l-.08.28.1.42.15.22.36.24.29.06.42-.09.25-.15a.89.89,0,0,1,.29.15,1,1,0,0,0,.74.09l.19-.09a3.15,3.15,0,0,0,.33.22l.42.07.19-.07c0,.11-.25.42-.25.42l-.1.28,0,.41.08.16.3.26.29.11a1,1,0,0,0,.84-.13l.23-.31.05-.26,0-.39c.13-.26.26-.42.32-.57a1.73,1.73,0,0,0,.21-.33v-.48l-.21-.39-.29-.28-.24-.09-.39,0a1.3,1.3,0,0,0-.93-.13l-.21.11-.19,0-.21.11-.19-.15-.23-.11H253a.47.47,0,0,0,0-.15l0-.17c0-.11-.1-.24-.1-.24l-.11-.09a2.63,2.63,0,0,0,.11-.46.78.78,0,0,0-.15-.35,1.33,1.33,0,0,0,.27.09l.26,0a1.33,1.33,0,0,0,.35-.13,1.1,1.1,0,0,0,.42-.59,1,1,0,0,0,.72,0v.2a1.39,1.39,0,0,1,0,.15,1.11,1.11,0,0,0,.21.63,1,1,0,0,0,.23.22c.15.26.21.37.29.48a1,1,0,0,0,.69.35,1.21,1.21,0,0,0,.4-.09,1.78,1.78,0,0,0-.12.29l0,.34.1.2v.3l.08.16.31.26.28.09a.92.92,0,0,0,.33,0,1.27,1.27,0,0,0,.25.67.68.68,0,0,0,.11.33l0,.22a1,1,0,0,0,.86.85c0,.09.08.16.1.22l.34.26-.06.29a3.13,3.13,0,0,0-.23-.31l-.42-.2h-.32l-.4.23-.23.35,0,.44a1.4,1.4,0,0,0-.46.2,1.11,1.11,0,0,0-.05,1.41,1.7,1.7,0,0,1-.1.14l0,.15-.08.13,0,.57-.17,0-.4.19-.21.22a.86.86,0,0,0-.19-.5.88.88,0,0,0-1-.31.81.81,0,0,0-.55.57.91.91,0,0,0,.15.79,1,1,0,0,0,.21.19.82.82,0,0,0-.48.87,2.54,2.54,0,0,0-.36.46v.24c0,.07,0,.27,0,.27l.23.37.15.08.23.07.13,0a1.33,1.33,0,0,0,0,.26l0,.16a2.91,2.91,0,0,1,.12.32l-.21.18a1.81,1.81,0,0,0-.14.26,1,1,0,0,0-.34.52,2,2,0,0,0-.8-.11,2.8,2.8,0,0,1-.25.14,1,1,0,0,0-1.39-.31l-.18.15-.09.13a1.25,1.25,0,0,0-.46-.09l-.3,0a1.62,1.62,0,0,0-.31.2,5.16,5.16,0,0,0-.67,0,1.34,1.34,0,0,0-.51.49.77.77,0,0,0-.33.08.87.87,0,0,0-.4.09l-.38-.26-.33,0-.45.11a.91.91,0,0,0-.59.58.88.88,0,0,0,.19.85l.36.24.28,0,.44-.09a2.17,2.17,0,0,0,.31-.28l.19.15a2.19,2.19,0,0,0,.42.15.46.46,0,0,1,.27,0,1.08,1.08,0,0,0,.36,0l0,.21a.55.55,0,0,0,.11.16.22.22,0,0,0,.12.13.53.53,0,0,0-.17.08l-.27-.19-.33,0-.34,0a.87.87,0,0,0-.67.41,1,1,0,0,0-.06.78l.29.31.19.07a1.86,1.86,0,0,0,.25.28l.29.09V119l.11.37a1.08,1.08,0,0,0,1.18.39,1.31,1.31,0,0,0,1.38.16l.27-.29.07-.28,0-.44a.42.42,0,0,1,.08.28,1,1,0,0,0-.1-.63l-.11-.59a.94.94,0,0,0-1.18-.41l-.31.3-.11.26.28.11-.3-.08-.14,0a1.16,1.16,0,0,0,0-.46.08.08,0,0,0,0-.14l.35-.26a1.2,1.2,0,0,0,.57-.13l.3-.41c0-.11.14-.07.14-.07a.94.94,0,0,0,.4-.11s0,.18,0,.18l0,.19.1.27.07.1.25.16.19,0a.66.66,0,0,0,.42-.06l.23-.31,0-.26-.1-.31a.73.73,0,0,0-.09-.11c0-.08,0-.11,0-.17a1,1,0,0,0,.32,0l.13,0c.08,0,0,.13,0,.13l-.07.59a2,2,0,0,0,.19.26.9.9,0,0,0-.21.12l-.23.36,0,.29.12.41.15.22.36.22.29,0,.4-.08a.93.93,0,0,0,.46-.61s.15,0,.15,0l.13,0a.91.91,0,0,0,.46,0l.33-.34.09-.29,0-.13a.62.62,0,0,0-.08-.46c-.07-.08.25-.3.25-.3l.14-.27.05-.13s.12.18.12.18a1,1,0,0,0-.12.72c0,.19,0,.3.1.39a2.75,2.75,0,0,1,.28.26,1.33,1.33,0,0,0-.49.22.35.35,0,0,1,.17-.06l-.48.21-.21.25-.07.32-.21,0-.44.09-.29.22-.23.35,0,.28a1,1,0,0,0,0,1.13,1.43,1.43,0,0,0,.23.2.39.39,0,0,1-.07.15.63.63,0,0,0-.21.39l-.08-.15a1.86,1.86,0,0,0-.38-.22,3.28,3.28,0,0,0-.06-.56.71.71,0,0,0-.13-.26.91.91,0,0,0-1.09-.25l-.23.14-.13-.05-.14,0h-.19a.75.75,0,0,0-.51.44.8.8,0,0,0,.09.69.65.65,0,0,0,.78.16,1.27,1.27,0,0,0,.42.32,1.48,1.48,0,0,0,.06.88l.5.3.34,0,.48-.31a3.48,3.48,0,0,0,.27-.24l0-.15a2.37,2.37,0,0,0,.39.28,1,1,0,0,0,.45.12l0,.13.06.35a.65.65,0,0,0,.12.15v0a1.09,1.09,0,0,0,1.48.26.28.28,0,0,1,.18,0,3.08,3.08,0,0,0,.24.26l.23.07.16,0a1.06,1.06,0,0,0-.44,1.66l.19.19.17.11.15.05a1.78,1.78,0,0,0,.12.3,1.08,1.08,0,0,0-.58.26,1.57,1.57,0,0,0-.07-.33l-.21-.28-.29-.17-.38-.07-.27,0-.32.23-.14.2-.07.39.07.26.21.27.29.22.31.06.45-.15a.56.56,0,0,0,.27-.22l.1.28.15.22.29.15.21,0,.32-.07.15-.13.18-.31v-.23l-.13-.31a.42.42,0,0,1,.19,0,1.18,1.18,0,0,0,.19.11h.31l.21,0,.07,0,.18-.13a1.83,1.83,0,0,1,.13-.16,1.25,1.25,0,0,0,.19-.71l-.06-.22-.07-.11a.83.83,0,0,0,0-1l-.23-.29-.36-.22-.28-.06a1,1,0,0,0-.6.06l-.09.11a.55.55,0,0,0-.25,0l.19-.21.08-.22a.62.62,0,0,0,0-.42l-.25-.22a1.09,1.09,0,0,0-.11-.69l-.16-.18-.15-.11-.23-.09a1.11,1.11,0,0,0-.51,0,.83.83,0,0,0,.17-.27s.08-.24.08-.24l-.08-.34-.08-.09-.26-.17a1.05,1.05,0,0,1-.06-.24s-.08-.07-.1-.11l.16,0,.32-.21c.06,0,.11.1.17.11a1,1,0,0,0,.73.1,1,1,0,0,0,.53.37c.12,0-.25.24-.25.24l-.17.22-.09.42,0,.17.23.35.23.16a1.11,1.11,0,0,0,.31.1s.32.44.32.44a1,1,0,0,0,1.22.22,1.1,1.1,0,0,0,.31-.15,4.69,4.69,0,0,1,.42-.24l.29-.31.09-.28,0-.16a1.61,1.61,0,0,0,.54-.33,1,1,0,0,0,.23-.85.7.7,0,0,0,.4-.34.78.78,0,0,0,.13.26.71.71,0,0,0,.15.15l.17.07-.09.19,0,.16.06.28a.63.63,0,0,1,0,.3v.14a.79.79,0,0,0-.35-.27.91.91,0,0,0-1.09.37l-.05.46.05.15a.92.92,0,0,0,1.05.81l.23-.08.16-.09.19-.18a1.47,1.47,0,0,0,.13-.37.77.77,0,0,0-.08-.37,1.17,1.17,0,0,0,.69.37,1.25,1.25,0,0,0,.25.09h.21a.74.74,0,0,0,.06.28l.19.16.13.13,0-1.35,2.83-1.73a1.39,1.39,0,0,0-.63,0l-.21.18c0-.07.09-.09.13-.16l0-.6-.23-.29a.92.92,0,0,0-.7-.55.37.37,0,0,0-.21,0,1.28,1.28,0,0,0,.07-.28c0-.08.14-.13.14-.13a.88.88,0,0,0,.23-.24.85.85,0,0,0,.09-.74,2.4,2.4,0,0,1,.48.09,1.06,1.06,0,0,0,.25,0l.26.11h.19l.27,0a1.23,1.23,0,0,0,.5-.45l.13.12.35,0,.43-.09a1.32,1.32,0,0,0,.27-.24.6.6,0,0,0-.07.18l0,.46.11.24s-.13.35-.13.35l0,.24a1.48,1.48,0,0,0-.14.36c-.09-.19-.11-.34-.19-.47a.9.9,0,0,0-.87-.48,1.22,1.22,0,0,0-.73-.14l-.46.31-.13.3v.51a1.25,1.25,0,0,0,.74.65,3.08,3.08,0,0,0,.33.2l.17.06s.09.13.09.13l12.28-7.65ZM249.66,99.41l-.1.13c-.17.14-.23.14-.28.14l-.14.06-.15.13a1,1,0,0,0-.71-.56l-.11-.11-.23-.18-.21-.11A.91.91,0,0,0,247,99l-.11.07-.17.17c0,.06,0,.17-.08.22a.89.89,0,0,0-.65-.35l-.4.13-.21.19.19.22-.25-.19-.11-.09a.86.86,0,0,0,.23-.39c.09,0,.09-.09.08-.15l.42-.07a1.08,1.08,0,0,0,.57.13l.46-.24.19-.28.07-.4a.74.74,0,0,1,0,.22l.06-.24a1,1,0,0,0,.55,0,.94.94,0,0,0,.29-.17s.13.5.13.5,0,.15,0,.18l0,.21a3.82,3.82,0,0,0,.63.42l.19.11.37.08a1,1,0,0,0,.36-.12Zm2.73.22-.27-.37-.19-.11a1.61,1.61,0,0,0,.21-.3l.25-.14a1.19,1.19,0,0,0,.15,1.05C252.48,99.72,252.44,99.66,252.39,99.63Zm3.7,22.28s-.08-.08-.1-.15a.67.67,0,0,0,.31.13ZM276,104.76a1.2,1.2,0,0,0,.26.13.9.9,0,0,0,.52.35c0,.07-.25,0-.25,0l-.38,0-.06,0-.23-.19-.49,0a.78.78,0,0,0-.31-.35s.27,0,.27,0l.15,0,.33-.09.17.18Zm-2.18,3.88a1,1,0,0,0-.17-.24l0-.15-.15-.21.23-.09a1.39,1.39,0,0,0,.36-.31,1,1,0,0,0,.12.44.29.29,0,0,0,.09.15c.08.07,0,.26,0,.26l0,.18v.24a.8.8,0,0,0,.16.35,1.12,1.12,0,0,0,.49.34,1.79,1.79,0,0,0,.06.4l0,.08,0,.09a.87.87,0,0,0-.33.33l-.09-.18a1.59,1.59,0,0,0-.27-.17,1,1,0,0,0-.09-.28,1.53,1.53,0,0,0-.16-.22,2.43,2.43,0,0,0-.26-.18,2.14,2.14,0,0,1,.09-.28A2.68,2.68,0,0,0,273.82,108.64Zm-1.11-6.21a.8.8,0,0,0,.21-.57l-.19-.4a1.2,1.2,0,0,0-.47-.39l-.08-.11-.36-.22a3.19,3.19,0,0,1,0-.34l-.06-.33a.91.91,0,0,0-.25-.29l0-.19a1.83,1.83,0,0,1,.7,0l.2-.09a1,1,0,0,0,.11,1,1.07,1.07,0,0,0,.42.28.85.85,0,0,0,0,.73.84.84,0,0,0,.71.48,2.37,2.37,0,0,1-.21.3,1,1,0,0,0-.52.29l-.13-.09Zm.12,2.24-.15,0a.28.28,0,0,1-.08-.25C272.68,104.54,272.77,104.61,272.83,104.67Zm-.34-12.17.22.17a.91.91,0,0,0,.16.63c0,.07,0,.16,0,.24l-.18-.26a.78.78,0,0,0-.07-.56s-.27-.16-.31-.2a1.33,1.33,0,0,0-.19-.13l-.17-.11-.29,0-.36.07a1.18,1.18,0,0,0,.44-.66l.21,0,.11.13.25.11a.78.78,0,0,0,0,.26Zm-.12,3.9a.89.89,0,0,0,.31.51,1.45,1.45,0,0,1-.6-.23l-.21-.1-.15,0,.23-.25.15-.36a1,1,0,0,0,0-.25.66.66,0,0,0,0-.15,2.72,2.72,0,0,0,.21-.46l.17.18.27.11c.05.1,0,.1-.08.15l-.15.19-.08.16,0,.22A1.42,1.42,0,0,0,272.37,96.4Zm1.47,2.66c0-.1.15,0,.29.11A.92.92,0,0,0,273.84,99.06Zm-4.27,4.57.07-.13,0-.13a.83.83,0,0,0,0-.42c0-.11.11,0,.21.07a.77.77,0,0,0,.19.15l0,.37.12.3c-.12,0-.25,0-.4,0l-.21.14,0-.2ZM270,92.41a.83.83,0,0,1-.15.11c-.27-.11-.29-.16-.32-.22a.75.75,0,0,0-.25-.22,1.53,1.53,0,0,0,.44.13.83.83,0,0,0,.47.13A.89.89,0,0,0,270,92.41Zm-2.82,10.65-.14.22s0,.24,0,.39l-.09-.13a1,1,0,0,0-.23-.07,1.35,1.35,0,0,0-.13-.3.89.89,0,0,0-.61-.35l-.39,0-.23-.06a1.1,1.1,0,0,0-.8.28,1.33,1.33,0,0,1-.05-.19l-.1-.11c0-.07.08-.07.08-.07l.13-.06a1.42,1.42,0,0,0,.84-1,1.4,1.4,0,0,0,.46.22,2,2,0,0,1,0,.48A1.44,1.44,0,0,0,267.2,103.06Zm-1-13.34.1.09C266.24,89.81,266.24,89.75,266.24,89.72Zm1.26,2.56a.71.71,0,0,0-.13-.26.64.64,0,0,0,.17-.13c.06,0,.12,0,.15,0a.86.86,0,0,0,.33-.11,1.27,1.27,0,0,0,.27,0,.91.91,0,0,0,.17-.09l.06.13-.58.31C267.9,92.21,267.66,92.24,267.5,92.28Zm.29,4.78a.57.57,0,0,0,.08-.09C267.94,97,267.87,97,267.79,97.06Zm-.13,11.65a.52.52,0,0,1,.21-.07,1,1,0,0,1,.15.38,1,1,0,0,0-.67,0,1,1,0,0,0-.25.17c-.07,0-.11.15-.17.22a1.55,1.55,0,0,1,.15-.22h0a1.65,1.65,0,0,1,.1-.19l.09-.16C267.37,108.73,267.66,108.71,267.66,108.71Zm-.65-2.4a1.68,1.68,0,0,0-.38.37l-.1,0h-.15l-.1-.33-.25-.24.21,0a1.15,1.15,0,0,0,.56-.37l.28.16.27,0A.86.86,0,0,1,267,106.31Zm-2.45,3.17a.75.75,0,0,0-.07-.12,2.88,2.88,0,0,1,.74-.1h.27l.11.13.31.13.19,0H266a1.1,1.1,0,0,0,.84-.06,1,1,0,0,0,0,.43,1.84,1.84,0,0,0-.59-.19,1.2,1.2,0,0,0-.95.45l-.14.33v.15a2.68,2.68,0,0,1-.64-.15l-.21,0,.26-.36.06-.29Zm2,5.17a.33.33,0,0,0,0,.15s0,.11,0,.2h-.31a1.51,1.51,0,0,0,0-.31l-.38-.5-.38-.11a1.2,1.2,0,0,0-.67-.13.3.3,0,0,0,.13-.16.48.48,0,0,0,.16-.12.94.94,0,0,0,.84.47.93.93,0,0,0,.51,0,.62.62,0,0,0,.19-.09l-.13.42Zm-1.22,1a1.89,1.89,0,0,1-.1.17v-.18Zm3.28-6.07a.47.47,0,0,0,.09.17.5.5,0,0,0,.1.11.9.9,0,0,0-.27.81c0,.06,0,.09.06.13l-.13-.07-.21-.17-.19,0a.59.59,0,0,0,.32-.13l.17-.2.06-.16.06-.24A1.15,1.15,0,0,0,268.65,109.63Zm.88,5.23-.12.24,0,.35a.3.3,0,0,0,.06.14.89.89,0,0,0-.23.3.41.41,0,0,0-.11-.11l0-.17,0-.24-.12-.27a.83.83,0,0,0-.11-.15.79.79,0,0,0,.67-.21l.07-.18S269.6,114.67,269.53,114.86Zm-.67-10.08-.1.26c-.07,0-.13-.06-.21,0a1,1,0,0,0-.3.13l-.1-.35-.11-.17c.07,0,.17,0,.21,0a1.09,1.09,0,0,0,.72,0Zm-3.19-9.3a.6.6,0,0,1-.19-.06l-.38-.09-.27,0,.08-.11s.06-.16.11-.27l.27-.08a1.11,1.11,0,0,0,.11.35A.85.85,0,0,0,265.67,95.48Zm-1.3-4.9a1.93,1.93,0,0,1-.11.32s0,.13-.06.16a1.11,1.11,0,0,1-.07-.16,1.06,1.06,0,0,0,0-.3s0-.07,0-.11S264.37,90.58,264.37,90.58Zm-.65-5.83.14.07a.56.56,0,0,0,.27.15.7.7,0,0,0-.16.1l-.26-.28-.33-.11s.13,0,.25-.06Zm-.13-2.07-.15.11a1.38,1.38,0,0,0,0-.29A.43.43,0,0,0,263.59,82.68Zm-.9,6.13a.84.84,0,0,1-.09.28l-.13,0,.13-.16Zm-2.53-.07.4-.19.17-.22.07-.13a.58.58,0,0,0,.08-.38,1.69,1.69,0,0,0,.27.11,1.1,1.1,0,0,0-.4.62v.23a1.73,1.73,0,0,1-.44.51,1.3,1.3,0,0,0-.15.19A1.51,1.51,0,0,0,260.16,88.74Zm.78,4.85.17,0,.27,0a.46.46,0,0,1,.28.11.35.35,0,0,1-.3,0,2.07,2.07,0,0,0-.5,0Zm.49-9.71c0-.24-.22-.44-.55-.53a.78.78,0,0,0,0-.32l.36.06.25,0,.1.14.26.17.12.06h.05a1.1,1.1,0,0,0,.29.1.47.47,0,0,0,0,.16A1.12,1.12,0,0,0,261.43,83.88Zm-2.32,7.9a2.09,2.09,0,0,1,.21.34l-.2.24-.09.42s-.19,0-.19,0-.1.06-.15.08a.59.59,0,0,0-.08-.41.32.32,0,0,0-.1-.13A1,1,0,0,0,259.11,91.78Zm-.82,5.5a1,1,0,0,0,0-.38c0-.1,0-.28,0-.28l.23.11h.5l.25-.11.3-.35.08-.3-.08-.44a.89.89,0,0,0-1.09-.48,1,1,0,0,0-.05-.24l.13-.18a4.38,4.38,0,0,1,1.49.09,1,1,0,0,0,.23.52,1.7,1.7,0,0,1,.21.35.91.91,0,0,0,.59.66v.2a1.21,1.21,0,0,0,.25.35l-.06.15a.8.8,0,0,0,.1.48l.07.11a.83.83,0,0,0,0,.91l.27.22.23.09.27,0a1.13,1.13,0,0,0,.61-.17,1.68,1.68,0,0,0,.34-.37,2.28,2.28,0,0,0,.23.3l.21.15a.27.27,0,0,1-.12-.06,1.11,1.11,0,0,0,.77.31s.27-.18.32-.2a1.6,1.6,0,0,0,.19-.11l.18-.11.17-.24.07-.37a.23.23,0,0,0,.08-.11,1.73,1.73,0,0,0,.53-.11l.06.2A.61.61,0,0,0,266,98a.94.94,0,0,0-.49.57l-.21.24a2,2,0,0,0-.46.19l-.21.22-.1.17-.07.27a1.11,1.11,0,0,0,.23.59,1.92,1.92,0,0,0,.47.41v.2a.56.56,0,0,0-.17-.09l-.19-.17-.3-.07a.33.33,0,0,0,0-.15l-.26-.51c-.1-.1-.1-.13-.1-.17a1.12,1.12,0,0,0-.57-.83,1.16,1.16,0,0,0-1,0l-.29.24-.07.15c-.48.14-.52,0-.65-.21a.58.58,0,0,0-.14-.13c.1-.51-.15-.9-.72-1.21l-.46,0-.29.09-.19.17a.92.92,0,0,0-.59-.13l-.21.09a.77.77,0,0,0-.28-.35.82.82,0,0,0-.56-.13C258.19,97.38,258.25,97.36,258.29,97.28Zm4.88,7.11c-.06-.07.13,0,.13,0l.46-.07.42-.34a2.53,2.53,0,0,0-.21.32c-.05,0-.65.48-.65.48l-.05.26-.23.35c-.08,0,.13-.24.13-.24l.08-.24v-.34A.91.91,0,0,1,263.17,104.39Zm-.28,1.07a1,1,0,0,0-.39.44h-.19l-.15.07a1.66,1.66,0,0,0,.15-.37A.94.94,0,0,0,262.89,105.46Zm-9.43-19.14.38,0a1.22,1.22,0,0,0,.78-.76.8.8,0,0,0,.36.71,1.45,1.45,0,0,0,.37.11l-.12.16,0,.22-.36,0-.17,0-.29.2-.15.2a1,1,0,0,0-.06.22,2.39,2.39,0,0,0-.4.3l-.11.24,0,.37.09.31.21.28-.13.11a2,2,0,0,0-.25-.31l-.11-.08a.78.78,0,0,0-.44-.13l-.31.11a.76.76,0,0,0-.42-.2l.33,0,.23-.15.25-.33.05-.28-.05-.41a2.41,2.41,0,0,0-.21-.24.8.8,0,0,0,.4-.57C253.3,86.28,253.46,86.32,253.46,86.32Zm-1.23-4.25a.88.88,0,0,0,.1-1c-.08-.08.31-.43.31-.43.15-.13.3.08.3.08l.17.13.19,0-.05.45a.43.43,0,0,0-.16,0,.86.86,0,0,0-.53.44.43.43,0,0,0,0,.22,1.14,1.14,0,0,0-.44.18Zm-1.08,5.14a1.1,1.1,0,0,0,.13-.47l.21-.22c-.1-.07.06,0,.06,0a.69.69,0,0,0,.09.22l.12.11a1.45,1.45,0,0,0-.25.17l-.17.35,0,.26.09.35.12.16.36.22a2,2,0,0,0-.38.17c-.06,0-.08.13-.13.2a.76.76,0,0,0-.12-.15,1,1,0,0,0,0-.53,1.18,1.18,0,0,0-.32-.57A.67.67,0,0,0,251.15,87.21Zm-1.05,6.05s0-.07,0-.11a1.09,1.09,0,0,0-.21-.26c.13,0,.19.08.29.13A.36.36,0,0,1,250.1,93.26Zm-.35-8.38a.77.77,0,0,0-.26-.17l.15-.12a1,1,0,0,0,.32-.06l-.07-.3c-.06-.18.38,0,.38,0l.19-.38,0-.26a2.81,2.81,0,0,0,.36.24,1,1,0,0,0-.46.57A1.86,1.86,0,0,0,249.75,84.88Zm5.19,11.68a3.28,3.28,0,0,0-.15-.49l-.23-.23-.15-.11a1.3,1.3,0,0,1,0-.48,1.52,1.52,0,0,0,.19-.24l.08-.27a1.24,1.24,0,0,0-.08-.41.83.83,0,0,0,.19-.7,1.66,1.66,0,0,0,.4.05l.29-.18a.72.72,0,0,1,.28.3l-.17.38a.81.81,0,0,0,.14.34l0,.38.16.32.34.27.27.1.25,0,.11.15.19.16a1.63,1.63,0,0,0-.36.15.7.7,0,0,0-.17.13l-.16.33a1,1,0,0,0-.61-.31A1,1,0,0,0,254.94,96.56Zm2.16,1.85-.09,0a1,1,0,0,0-.79.22l-.13.26L256,98.8l-.16-.06-.23,0a.92.92,0,0,0,.25-.7.77.77,0,0,0,.52-.2.51.51,0,0,0,.09.13l.33.24.26,0A.13.13,0,0,1,257.1,98.41Zm0-6.48-.3.19-.1.14a1.24,1.24,0,0,0-.34.35,2.2,2.2,0,0,0-.16-.64c0-.08-.05-.11-.07-.17l-.15-.24-.14-.15-.27-.12a1.4,1.4,0,0,0-1,.2,1.24,1.24,0,0,0-.38.42,1.16,1.16,0,0,0-.29.46v.23l0,.14,0,.17a1.19,1.19,0,0,0-.49.13.93.93,0,0,0-.65-.89l-.27,0-.17,0-.23.09a2.09,2.09,0,0,0-.25.3,2.46,2.46,0,0,0-.32-.19,1.27,1.27,0,0,1-.21-.42l-.25-.24-.21-.09-.21,0c0-.09.4-.33.4-.33l.15-.3,0-.4a.87.87,0,0,0-.76-.65,1,1,0,0,0,.66-.3.82.82,0,0,0,1,.43l.21-.17.09.09.12.1a.93.93,0,0,0,.46.13l.42-.17c.05-.06.38.28.38.28l.34.09.44,0a5.46,5.46,0,0,0,.34.48l.33.15.26,0,.37-.08.15-.09a1,1,0,0,0,.23-.22l.11.13a2.6,2.6,0,0,0,.4.07V91l.05.41a1.16,1.16,0,0,0,.4.42C257.29,91.88,257.1,91.93,257.1,91.93ZM257,89l-.19.06c0-.06-.08-.11-.1-.15l-.38-.22-.29-.06-.44.12-.22.16-.21.33A.57.57,0,0,0,255,89c.12-.15.27-.26.37-.41l.07-.17,0-.14v-.19a1.84,1.84,0,0,1,.19-.37,1.18,1.18,0,0,0,.69.06l.34-.24.17-.22A2.36,2.36,0,0,0,257,87l0-.22a1.39,1.39,0,0,0,.55.26.94.94,0,0,0-.06.61l.46-.06-.34.28.25.28c0,.09-.16.35-.16.35l-.07.22V89A3.46,3.46,0,0,0,257,89Zm2.23,11.59-.29-.11a1,1,0,0,0-.59.17,1,1,0,0,0-.28-.46.88.88,0,0,0-.42-.15c-.06-.11.09-.26.09-.26l.17-.29c0-.06,0-.11,0-.17a4.8,4.8,0,0,0,.53-.17l.1-.11a1.16,1.16,0,0,0,.17.34l.32.22a1.12,1.12,0,0,0,.94-.13s.07,0,.11.09a1.26,1.26,0,0,0,.21.67,2.27,2.27,0,0,0-.3.13.88.88,0,0,0-.44.51l-.14-.16Zm-2.46,10.08.27,0,.4-.26.15-.26.06-.46a.65.65,0,0,0-.12-.28l.25,0,.21,0,.25-.09.15-.11c.19-.11.25-.11.31-.09a1,1,0,0,0-.5.48.89.89,0,0,0,.06.76c0,.05.07.12.11.18l.33.2.26.08.39-.06.17-.07.28-.32.06-.2a.76.76,0,0,1,.12.28s.05.07.07.11a.9.9,0,0,0,.54.35.55.55,0,0,0-.14.09l-.17.28s-.15-.09-.15-.09l-.48-.13-.17,0-.27.11-.15.13-.17.22a.7.7,0,0,1-.19.26l-.14.3s-.17-.06-.17-.08a.42.42,0,0,1-.15-.16,1.87,1.87,0,0,0-.38-.24.78.78,0,0,0-.38,0,2.14,2.14,0,0,0-.08-.32L257,111l-.31-.11-.19,0a.57.57,0,0,1-.21-.3Zm.93,7.26a.61.61,0,0,0-.21.33l-.13-.2-.13-.1a1.08,1.08,0,0,0,.55-.2Zm4.89-1.41a2.19,2.19,0,0,0-.34.32l-.06.39-.25.51a.77.77,0,0,0-.07.26.93.93,0,0,0,.13.55,2.3,2.3,0,0,0-.12.34l0-.39a.85.85,0,0,0-.82.22.82.82,0,0,0-.17.81l.17.22-.21.06-.11-.07a1,1,0,0,0-.77-.06l-.3.26-.14.22-.07.37,0,.18.09.23.12.14c0,.06-.29-.31-.29-.31l-.25-.15-.32-.07a1.3,1.3,0,0,0,.3-.13.35.35,0,0,0,.1-.08l.19-.31.06-.24-.06-.37a1.26,1.26,0,0,0-.5-.52l.25-.25.12-.28,0-.15a.67.67,0,0,0-.05-.44s.19,0,.19,0l.42-.11a.88.88,0,0,0,.25-1.28l-.16-.16-.34-.15h-.27l-.36.11-.15.11-.23.33-.06.26a1,1,0,0,0,.06.46,1.08,1.08,0,0,0-.56,0,1.17,1.17,0,0,0,.08-.68c.06-.19.19-.48.19-.48v-.2a2.76,2.76,0,0,0,0-.52l-.11-.26L258,115a.63.63,0,0,1-.15-.11,2.61,2.61,0,0,0-.46-.31l-.59.06-.29.2-.25.5a1.92,1.92,0,0,1,0,.48s-.26-.3-.26-.3l-.27-.15a.5.5,0,0,0,.13-.22,1,1,0,0,0,.06-.48l.15-.26c-.09,0,.08-.07.08-.07l.07-.28c0-.09.1-.05.18,0a.86.86,0,0,0,.91.24l.21-.11.14-.11s.15-.19.19-.19l.15,0,.38-.09a1.2,1.2,0,0,0,.59-.72c.06,0,.33.11.33.11a1,1,0,0,0,.53,0l.27-.29c.08-.06.27-.24.27-.24.17,0,.34.07.55.09a2.94,2.94,0,0,0-.25.35l-.06.26,0,.18v0a1.24,1.24,0,0,0-.05.44,1.83,1.83,0,0,0-.1.46l.17.35.12.58a2,2,0,0,0,.09.25.89.89,0,0,0,.94.47,1,1,0,0,0,.59-.15,1,1,0,0,0,.25-.26l0,.22a.53.53,0,0,0,.13.2l.1.11,0,0A2.75,2.75,0,0,0,262.56,116.55Zm.31-3.76s-.4-.26-.4-.26l-.33,0-.19.06a1.16,1.16,0,0,0-.48-.08l.21-.24.06-.16.11-.11.1-.26c.06,0,.1.13.19.22a.82.82,0,0,0,.76.15,1.21,1.21,0,0,0-.09.31.75.75,0,0,0,0,.21Zm-.12,6.72-.09.09a1.79,1.79,0,0,0,.07-.48c0-.07.06,0,.14,0a1.58,1.58,0,0,1,.15.24A2.18,2.18,0,0,0,262.75,119.51Zm.92-8.57a.93.93,0,0,0-.16.69.29.29,0,0,0-.13.05l.08-.15,0-.31a1,1,0,0,0-.08-.35l-.17-.2-.17-.1-.25-.09a.82.82,0,0,0-.76.35.69.69,0,0,0-.08.35c0-.05-.06-.13-.09-.16a.88.88,0,0,0-.61-.35s0-.11,0-.11l.08-.17a3.32,3.32,0,0,0,.19-.37.91.91,0,0,0-.08-.83.34.34,0,0,0-.07-.15l-.35-.24-.26-.07-.4,0a1.08,1.08,0,0,0-.58.74,2.35,2.35,0,0,0-.38-.39l-.27-.09a1,1,0,0,0,.52-.52.72.72,0,0,1-.19.21l.27-.43,0-.31-.15-.44a2.68,2.68,0,0,0-.8-.52,2.31,2.31,0,0,0,.36-.37.84.84,0,0,0,.14-.42l.3.38a1,1,0,0,0-.17.37l.19.46.25.23.5.12a.43.43,0,0,1-.16,0,1.08,1.08,0,0,0,.54.1l.23,0,.24-.05.18-.11c.07,0,.15.07.19.11.19.11.05.35.05.35l0,.26.09.39.19.29.37.22.22.06.18.53.11.1a1,1,0,0,1,.06.14s.36.37.36.37l.31.09.49-.05a.63.63,0,0,1-.25.07H264l-.15.11Zm1.43,10.3,0,.19,0-.17a1.14,1.14,0,0,0-.48-.44.69.69,0,0,0-.28-.11h-.14a.64.64,0,0,0-.32-.22,1.08,1.08,0,0,0,.11-.23l.27.06a1.12,1.12,0,0,0,.35-.09l.22-.15,0,.17.05.38.12.17a1,1,0,0,0,.28.26Zm11.32-7.09s0,.19,0,.32l-.29.16a1.44,1.44,0,0,1-.21.24c-.05.06-.17-.05-.17-.05l-.19-.06a1.22,1.22,0,0,0,0-.35,1,1,0,0,0-.25-.42.88.88,0,0,0-.26-.19h-.35l-.24.06a1,1,0,0,0-.21-.15.92.92,0,0,0-1.05.17h-.44l-.19.07c-.12,0-.08-.18-.08-.18l-.06-.26-.23-.32-.21-.12-.38-.08-.27.06a1.51,1.51,0,0,1-.34,0,1.4,1.4,0,0,0-.63,0l-.19.08-.11.07-.16.13a1,1,0,0,0-.21.5l-.07.24a2,2,0,0,0-.21-.21l-.12,0A1.17,1.17,0,0,0,269,113a1.51,1.51,0,0,0,.31-.9l-.14-.28-.15-.17a2,2,0,0,1-.06-.27,1.83,1.83,0,0,1,.16.13,1.13,1.13,0,0,0,.7.09l.08.13a1.28,1.28,0,0,0,.28.16.63.63,0,0,0,.08.23l.25.24.21.09.32,0a1.63,1.63,0,0,0,.69-.26.64.64,0,0,1,.19-.07s.4-.28.42-.28a1.32,1.32,0,0,0,.1.3,1.06,1.06,0,0,0,1.24.46,2.91,2.91,0,0,0,0,.48l.11.17a1.31,1.31,0,0,0,1.37.44.89.89,0,0,0,.52-.42l.32,0,.35-.09a.66.66,0,0,0,0,.29.39.39,0,0,0,0,.17s.07.15,0,.2Zm1.62-3.5a1,1,0,0,0-.59,0,.61.61,0,0,0-.19-.2,1.19,1.19,0,0,0-.23-.16l.19-.08.21-.11a1,1,0,0,0,.65,0c0,.08-.06.19-.1.32A.94.94,0,0,0,278,110.65Zm-13,25.62-.1,0h0l-.39.13a.55.55,0,0,0-.24,0l-.25.35,0,.27.09.19a1,1,0,0,0-.26.11c-.1,0-.16-.08-.25-.09l-.35,0-.22,0-.29.22-.19.28c0,.06-.19-.07-.19-.07l-.23-.09a1.82,1.82,0,0,0-.15-.26l-.27-.15-.21,0-.29.06.17-.13a1,1,0,0,0,.12-.15.87.87,0,0,0-.17-1.24l-.19-.09a1.26,1.26,0,0,0,.23-1.22l-.18-.18-.17-.15h-.17a1,1,0,0,0-1.26,0,.74.74,0,0,0-.32.5l-.12.15-.06.44a1.22,1.22,0,0,0,.1.24,1.07,1.07,0,0,0,.69.52.45.45,0,0,1-.14-.11l.4.2a.77.77,0,0,0-.13.75.92.92,0,0,0,.55.56l.33,0,.23-.08a.64.64,0,0,0-.25.39,1.62,1.62,0,0,0-.4.35,1,1,0,0,0-.15.5.79.79,0,0,0-.08.48l.08.18.07.11.14.17a1.15,1.15,0,0,0,1.29.17l.1-.13a1.6,1.6,0,0,0,.25,0,1.26,1.26,0,0,0,.4.28H263l.23-.06.27-.2a1,1,0,0,0,.09-.35,2.12,2.12,0,0,0,.42.13.78.78,0,0,0,.71-.11,1.12,1.12,0,0,0,.4.07.18.18,0,0,0,.1,0Zm-.15-4.56s0,0,0,0-.06-.09-.1-.17h0a0,0,0,0,0,0,0l.1-.11-.12-3.64a.23.23,0,0,0-.11,0,1,1,0,0,0-.46.13.88.88,0,0,0-.13-1,2.45,2.45,0,0,0,.34-.13l.17-.13,0,0,.14-.18v0a.74.74,0,0,0,0-.18.88.88,0,0,0-.07-.54.5.5,0,0,0-.16-.22,1.43,1.43,0,0,0-.53-.37.5.5,0,0,0,.17-.26.61.61,0,0,0-.11-.59.7.7,0,0,0-.6-.27.64.64,0,0,0-.51.29.71.71,0,0,0-.1.35c0,.06-.11.11-.15.17a.71.71,0,0,0-.27-.07l-.32.07-.19.11-.23.24a1.48,1.48,0,0,0-.15.48,1.07,1.07,0,0,1,.17,1.14l-.15,0-.16.11-.17.26,0,.22a.63.63,0,0,1-.17.22.6.6,0,0,0-.3.1.76.76,0,0,0-.35.53.91.91,0,0,0-.63.26.82.82,0,0,0-.51-.37.52.52,0,0,0-.17,0l-.2-.18-.55-.17a1.21,1.21,0,0,0-.57.35l-.12-.28-.22-.22-.16-.11a.92.92,0,0,0-.78,0l-.31.24-.13.22-.06.37,0,.18.12.24.11.13.19.17a1,1,0,0,0,.92,0c.06,0,.13-.09.21-.16a1.35,1.35,0,0,0,.09.33,1.75,1.75,0,0,0,.35.46l.32.08,0,.44.25.48.38.28.31.07.45-.07a1,1,0,0,0,.42-.69,1,1,0,0,0,.35,0,.8.8,0,0,0,.51-.42.87.87,0,0,0,.25-.3,1,1,0,0,0,.21.69,1.35,1.35,0,0,0,.38,1.29.62.62,0,0,0-.63.15,2.29,2.29,0,0,1-.36-.21l-.29,0-.43.14a1.09,1.09,0,0,1-.1.11.8.8,0,0,0-.1-.18l-.26-.15-.21,0a1.12,1.12,0,0,0-.29,0c-.08,0-.09-.11-.17-.15l-.5,0-.28.19-.23.31-.08.44.12.33.17.13.06.35a.7.7,0,0,0,.59.54c.07,0,.23.17.23.17l.32.16.19,0,.4-.11.23-.17.23-.35c.21,0,.4.06.59.06a1.37,1.37,0,0,0,.29.22s.63.15.63.15l.34-.15-.15-.39.38.26.17-.22.12-.46a1.78,1.78,0,0,0-.44-.82c0-.11.27-.13.27-.13a.86.86,0,0,0,.3.19s0,.13,0,.18a.92.92,0,0,0,1,1.09l.33-.13.19-.14a.37.37,0,0,1,.17-.15.9.9,0,0,0-.08.42,1.57,1.57,0,0,0-.38.72.8.8,0,0,0,.06.54,1.07,1.07,0,0,0,.17.5,1.75,1.75,0,0,0,.35.85l.21.14a.3.3,0,0,1,.09.06Zm-.21-1.37c0,.06-.14,0-.14,0l-.21,0-.3.08c-.12,0-.14,0-.17-.06a2.77,2.77,0,0,0,.17-.42l-.1-.5-.26-.35-.35-.22-.27-.06-.19,0a1.4,1.4,0,0,0,.16-.2v-.37a.86.86,0,0,0,.24.11l.23,0,.18,0,.17-.08a3.09,3.09,0,0,0-.06.34l.08.33.15.2.08.28.11.15.34.22.16,0A.79.79,0,0,0,264.72,130.34Zm0-5.76,0-1a.83.83,0,0,1-.11.2.32.32,0,0,1,0,.13,1.18,1.18,0,0,0,0,.26v0A.64.64,0,0,0,264.7,124.58Z"/></g><path class="cls-2" d="M235.35,84.26c2.4,2.3,10.46,8.56,16.94-3.2a.66.66,0,0,0-.64-1,62.13,62.13,0,0,0-16.06,3.08A.65.65,0,0,0,235.35,84.26Z"/><path class="cls-10" d="M294.58,76.32a7,7,0,1,0,7-6.73A6.85,6.85,0,0,0,294.58,76.32Z"/><path class="cls-11" d="M295,80.64l6,20.82a.5.5,0,0,0,.95,0l6-20.82a.48.48,0,0,0-.48-.6H295.51A.48.48,0,0,0,295,80.64Z"/><path class="cls-2" d="M296.9,89.68s2.69-3.72,4.8-3.49-.95,4-4,7.11C297.69,93.3,296.58,92.37,296.9,89.68Z"/><path class="cls-2" d="M240.15,56.65s2.41-4.72,6.58-3.15c5.11,1.93,3.37,11-4.38,11.48Z"/><path class="cls-12" d="M68.05,273.46s-6.41-.75-6.7,4.39c-.26,4.56,6,3.46,5.86-.24-.08-2.66-1-1.62-1.43.42-.28,1.46-2.62,1.19-2.5,0s2.2-2.88,3.76-2.42S68.05,273.46,68.05,273.46Z"/><path class="cls-7" d="M92,266c-7,21.17-5.89,16.78-10.71,29.84-3.91,10.59-.37,22.95,6.8,21.7s3-7.29.56-8c0,0-2.18-9.05,4.78-15.12,7.95-6.94,9.84-13,9.84-13Z"/><path class="cls-7" d="M137,307a18.16,18.16,0,0,1,0-14.95,28.38,28.38,0,0,0,1.27-18.34,13.54,13.54,0,0,0-1.08-3.22l-.05-.11c-4.89-9.79-20.19-9.32-20.19-9.32s-46.12-3.87-53.11,17.3-5.89,16.77-10.72,29.84c-3.91,10.59-.37,23,6.81,21.7s2.94-7.29.55-8c0,0-2-8.9,4.78-15.12s8.09-9.25,8.09-9.25a177.05,177.05,0,0,0,34,.2c-1,2.54-2,4.94-4,10.47-3.91,10.59-.37,23,6.8,21.7s3-7.29.56-8c0,0-2.18-9.05,4.78-15.12a41.1,41.1,0,0,0,7.34-8.25,2.25,2.25,0,0,1,4,.79c1.21,6.37,2.93,15.72,8.41,15.71C144.05,315,141.68,308.53,137,307Z"/><ellipse class="cls-11" cx="128.81" cy="272.03" rx="16.62" ry="16.07"/><ellipse class="cls-7" cx="130.71" cy="267.39" rx="17.24" ry="16.67"/><path class="cls-13" d="M137.09,266.28c.76,2.15-2.94,1.7-4.39-.09-.53,3.42-2.9,4.9-3.66,2.75a4.07,4.07,0,0,1,2.65-5.22A4.28,4.28,0,0,1,137.09,266.28Z"/><path class="cls-3" d="M133.32,264.28A1.31,1.31,0,1,1,132,263,1.28,1.28,0,0,1,133.32,264.28Z"/><path class="cls-3" d="M128.28,264a1.59,1.59,0,1,1-1.59-1.54A1.56,1.56,0,0,1,128.28,264Z"/><path class="cls-3" d="M137,260.93a1.59,1.59,0,1,1-1.59-1.54A1.56,1.56,0,0,1,137,260.93Z"/><path class="cls-13" d="M114.23,262.47c-1.57,0-3.24,2.1-2.28,6.49s.62,9.35,4.68,8c3.13-1-.39-7.12-.55-8.89S116.12,262.47,114.23,262.47Z"/><path class="cls-13" d="M139.41,252.4c1.13-1.05,3.84-.66,6.3,3.14s6.27,7.14,2.41,8.93c-3,1.38-4.83-5.39-6-6.76S138.05,253.67,139.41,252.4Z"/><path class="cls-3" d="M139.4,284.23a.93.93,0,0,1-.06-1.85c1.37-.1,33.76-3,36.23-50.85.8-15.34,1.63-28.2,2.49-38.21a1,1,0,0,1,1-.84.93.93,0,0,1,.87,1c-.85,10-1.69,22.83-2.48,38.16-2.56,49.51-37.65,52.57-38,52.6Z"/><path class="cls-14" d="M187.68,176.35c-2.89-.88-5.49-1.06-6.84,1-4.55,6.39-4.12,11.54-4.08,11.92a6.18,6.18,0,0,0,1.7,3.73,6.49,6.49,0,0,0,6.23,1.77,6.14,6.14,0,0,0,4.37-8.23.51.51,0,0,1,.26-.67,6.23,6.23,0,0,0,3.19-3.63C193.57,179,191.07,177.38,187.68,176.35Zm2,5.64a3.62,3.62,0,0,1-2,2.06.55.55,0,0,1-.55-.09,6.45,6.45,0,0,0-3.8-1.36.55.55,0,0,1-.48-.28,3.45,3.45,0,0,1-.19-2.59c.71-2.22,3-1.75,5.33-.88A2.54,2.54,0,0,1,189.65,182Z"/><path class="cls-15" d="M219.87,123.91a1,1,0,0,1-.34-.06.92.92,0,0,1-.56-1.18s1.11-3.07.7-10.32a1,1,0,0,1,1.9-.1c.45,7.72-.76,10.93-.81,11.06A1,1,0,0,1,219.87,123.91Z"/><path class="cls-15" d="M254.37,123.16a.93.93,0,0,1-1-.93.9.9,0,0,1,1-.91c.16,0,4.17,0,6.71-2.56a8.19,8.19,0,0,0,2.15-6.43,1,1,0,0,1,1.91-.07,10,10,0,0,1-2.7,7.8C259.37,123.08,254.87,123.16,254.37,123.16Z"/><path class="cls-15" d="M245.44,90.66a1,1,0,0,1-.9-.6.92.92,0,0,1,.57-1.19s5.43-2,6.82-5.8a1,1,0,0,1,1.21-.57.92.92,0,0,1,.59,1.18c-1.69,4.66-7.71,6.84-8,6.93A1.13,1.13,0,0,1,245.44,90.66Z"/><path class="cls-5" d="M305.12,83.23h-7a.93.93,0,1,1,0-1.85h7a.93.93,0,1,1,0,1.85Z"/></g></svg>